<svg id="afe8897d-3657-4022-b6ff-1f6c9c8fb72e" data-name="Слой 1" xmlns="http://www.w3.org/2000/svg" xmlns:xlink="http://www.w3.org/1999/xlink" viewBox="0 0 383.9 383.9"><defs><style>.bc0c1897-4c23-476d-872f-7ae65511a5c8{fill:#fed44f;}.a955d749-6208-4a2e-bdcd-918c108f2145{fill:#fec928;}.a0344378-d228-4c16-9ec3-122c29d35462{fill:#fa8c00;}.b068cf23-19b7-40b6-958c-7a0c388e2cfa{fill:#feb200;}.a725a182-0209-487f-b014-a06e78fc4a45{fill:#fe9f00;}.a4ca0f79-0991-4159-872f-13b538184708{fill:#fea000;}.eef94e62-a92a-4c8f-a6c2-4175acb4c474{fill:url(#b47d80f5-155a-4048-b41e-a5b7266498bd);}.a8f8d3ad-505f-4c6f-a49a-b1452a4a0e1b{fill:url(#e91551fc-b39f-4075-8720-581102552ed2);}.e114c708-fe53-417e-abe4-61dd26c9b98a{fill:url(#a3a31acf-dede-4ac4-aecc-ec26cb0a3dcd);}.e8fccacc-2ca9-4b45-a0fb-aa86f5d198fd{fill:url(#b82eb092-48dc-40bd-8b13-dde5bf756d66);}</style><linearGradient id="b47d80f5-155a-4048-b41e-a5b7266498bd" x1="241.51" y1="236.51" x2="302.81" y2="236.51" gradientUnits="userSpaceOnUse"><stop offset="0" stop-color="#ffdf3f"/><stop offset="0.51" stop-color="#fffc7f"/><stop offset="1" stop-color="#ffce00"/></linearGradient><linearGradient id="e91551fc-b39f-4075-8720-581102552ed2" x1="160.19" y1="241.06" x2="224.96" y2="241.06" xlink:href="#b47d80f5-155a-4048-b41e-a5b7266498bd"/><linearGradient id="a3a31acf-dede-4ac4-aecc-ec26cb0a3dcd" x1="81.16" y1="207.72" x2="192.57" y2="207.72" xlink:href="#b47d80f5-155a-4048-b41e-a5b7266498bd"/><linearGradient id="b82eb092-48dc-40bd-8b13-dde5bf756d66" x1="160.76" y1="119.59" x2="256.11" y2="119.59" xlink:href="#b47d80f5-155a-4048-b41e-a5b7266498bd"/></defs><path class="bc0c1897-4c23-476d-872f-7ae65511a5c8" d="M180.7,0h4.5c5.1,1,10.4.6,15.5,1.3a169.5,169.5,0,0,1,46.8,13.9,186.6,186.6,0,0,1,48.1,30.7c5.6,4.8,11.2,9.6,15.7,15.5.9,1.2,2.8,2.6.5,4.3s-3-1-4.2-2.1a172.4,172.4,0,0,0-83.5-41.5,186.2,186.2,0,0,0-26-2.7A171.3,171.3,0,0,0,79.8,60.6c-25.4,22-43.3,48.8-53.1,80.9a167.8,167.8,0,0,0-7.3,44.6,170.4,170.4,0,0,0,11.9,69.5c9.9,25.3,25.3,46.9,45.5,65.1,23.8,21.4,51.7,35,83.2,41.1a189.4,189.4,0,0,0,26,2.7,170.2,170.2,0,0,0,69.9-12.1,168.3,168.3,0,0,0,52.4-32.8c1.2-1.1,2.3-2.3,4.1-2.2,2.7,1.8.5,3.2-.5,4.5A131.8,131.8,0,0,1,296,337.7,195.2,195.2,0,0,1,239.6,372c-16.9,6.7-34.3,11.2-52.7,11.5-.6,0-1.2-.1-1.7.4h-4.5c-6.8-.7-13.7-.5-20.4-1.3-12.4-1.5-24.2-5-35.8-9.3a187.4,187.4,0,0,1-54.4-31.1c-19.8-16.4-36.2-35.6-48.5-58.3A189.9,189.9,0,0,1,2,228.8C.8,222.3.7,215.6.4,209.1c-.1-1.8.4-3.5-.4-5.2v-24c.7-6.5.5-13.1,1.3-19.6,1.6-14.4,6-28.1,11.4-41.4A191.2,191.2,0,0,1,52.3,58.1c26.4-27.4,58.2-45.4,95.1-54.6,9-2.2,18.2-2.7,27.4-3.1C176.8.3,178.8.8,180.7,0Z"/><path class="a955d749-6208-4a2e-bdcd-918c108f2145" d="M185.2,383.9c5.2-2.2,10.9-1.9,16.4-2.9,23.7-4,45.6-12.6,66.2-24.7,13-7.6,24.5-17.1,35.4-27.3,3.5-3.3,7.2-6.7,9.4-11.1-.7-2.5,1.1-3.7,2.5-5.1,13.7-13.4,24.3-29,32.6-46.2a165.3,165.3,0,0,0,15.9-55.8c3.7-35.5-2.6-69-19.4-100.5a159.5,159.5,0,0,0-28.8-39c-1.7-1.6-4.2-3-3.5-6-2-4.2-5.4-7.4-8.6-10.4-9.1-8.4-18.4-16.4-28.8-23.1A191.3,191.3,0,0,0,197.2,2.1c-4-.6-8.2-.4-12-2.1h21c6,.7,12.1.5,18.1,1.3C239.5,3.2,254,7.8,268,13.8a191.9,191.9,0,0,1,55.2,36q46.4,43.1,58.7,104.9c1.3,6.2,1.2,12.6,1.6,19,.1,1.3-.4,2.7.4,4v28.5c-.8,6-.5,12.1-1.3,18.1-2,15.1-6.5,29.5-12.4,43.4a195.2,195.2,0,0,1-82.4,92.5,187.5,187.5,0,0,1-58.3,21.7c-6.4,1.2-12.9,1.2-19.3,1.6-1.4.1-2.8-.4-4,.4Z"/><path class="a0344378-d228-4c16-9ec3-122c29d35462" d="M311.9,65.3c6.8,7.2,13.9,14.2,19.8,22.3,17.5,23.8,28.7,50.1,32.7,79.4,4.3,30.9,1,60.9-10.6,89.9a167.6,167.6,0,0,1-36.3,55.8c-1.7,1.7-3.3,3.4-4.9,5.2a176.9,176.9,0,0,1-48.1,32.6,173.7,173.7,0,0,1-66.6,15.6c-37.2,1.1-71.6-8.1-102.3-28.9-41.1-27.9-66.9-66.3-75.4-115.6-7.7-45.1.7-87.3,26.1-125.4S108.5,32,154.6,21.6a168.5,168.5,0,0,1,36.7-4.1c33,.1,63.9,8.5,92.1,25.9A194.4,194.4,0,0,1,311.9,65.3Z"/><path class="b068cf23-19b7-40b6-958c-7a0c388e2cfa" d="M227.2,350.9a147.8,147.8,0,0,1-28.8,3.9,161.4,161.4,0,0,1-51.3-6,157.6,157.6,0,0,1-56.5-29.1,164,164,0,0,1-39-44.4,162.1,162.1,0,0,1-21-59.2,141,141,0,0,1-1.9-24.2c.3-20.7,3.8-41,11.6-60.5a161.5,161.5,0,0,1,41.8-60c23.2-21.1,50.3-34.7,81.4-40.1a168.1,168.1,0,0,1,28.2-2.6c11.9.1,23.9.8,35.5,4.3,8.2,2.7,16.6,5.2,24.1,9.9a40.1,40.1,0,0,1,3.7,2.5c25.1,14.2,44.5,34.3,59.6,58.7a163.2,163.2,0,0,1,22.6,63.3,176.8,176.8,0,0,1,1.4,30.9,167.1,167.1,0,0,1-40.7,104.4c-10.7,12.4-22.6,23.3-36.5,31.9C250.6,341.3,239.6,347.6,227.2,350.9Z"/><path class="a725a182-0209-487f-b014-a06e78fc4a45" d="M254.2,46.5c-7.6-4.9-15.8-8.5-24.1-11.9a5.9,5.9,0,0,1-2.9-1.6c10.3,1.4,20,5.1,29.5,9.2a158.8,158.8,0,0,1,56.4,40.5c20.7,23.1,34,49.9,39.4,80.6a161.6,161.6,0,0,1,2.6,28.5,163.2,163.2,0,0,1-6.4,45.4,160,160,0,0,1-30.6,58.1A162.1,162.1,0,0,1,271,334.6a157.3,157.3,0,0,1-34.2,14.2c-1.2.3-2.4.4-3.6.6,1.6-2.2,4.2-2.6,6.4-3.5,25.8-10.7,46.4-27.9,63.5-49.6A164.3,164.3,0,0,0,333.7,234a172.4,172.4,0,0,0,4.5-26.8,160.1,160.1,0,0,0,.4-26.8,167.4,167.4,0,0,0-19.8-69.1,175.5,175.5,0,0,0-45.6-53.9,128,128,0,0,0-14.5-9.9C257.3,46.7,255.9,45.6,254.2,46.5Z"/><path class="a4ca0f79-0991-4159-872f-13b538184708" d="M254.2,46.5c1.1-2,2.6-1.3,4.1-.6a98.1,98.1,0,0,1,18.9,12.8c14.3,12.2,27,25.8,37,41.9a170,170,0,0,1,26.1,92.5c-.4,38.4-12,73.2-35.6,103.6-12,15.5-25.9,29.1-42.8,39.2A154.4,154.4,0,0,1,236.2,348a27.5,27.5,0,0,0-3,1.4,12.7,12.7,0,0,1-6,1.5l12.4-5.9a164.7,164.7,0,0,0,40.9-26.7,167.1,167.1,0,0,0,39.6-51.5,163.3,163.3,0,0,0,16.6-60.2,167.2,167.2,0,0,0-14.3-84.5,169.8,169.8,0,0,0-27.7-42.3A158,158,0,0,0,254.2,46.5Z"/><path class="a0344378-d228-4c16-9ec3-122c29d35462" d="M244.6,278c2.6-25.9.2-50.6-8.7-73.5a28.3,28.3,0,0,0,5.7-10.5,128.8,128.8,0,0,1,26.6,4.8L308.8,278Z"/><path class="a0344378-d228-4c16-9ec3-122c29d35462" d="M156.7,278l1.6-12.3c18.3-1.7,27.2-23.8,14-38a67.7,67.7,0,0,1,24.3-24.4c6.6,7.5,14.5,10.8,23.8,9.5a128.8,128.8,0,0,1,6.4,65.2Z"/><path class="a0344378-d228-4c16-9ec3-122c29d35462" d="M75.1,278l73-142.6c18.6,10,34.8,22.2,48,36.9-3.8,4.7-5.7,11.2-4.6,19.7-12.1,6.4-22,16.6-30.4,29.5-26.3-4.8-37.3,29.3-15.5,41.7a61.4,61.4,0,0,0-.9,14.8Z"/><path class="a0344378-d228-4c16-9ec3-122c29d35462" d="M261.7,186,191.9,49.8l-36.2,70.6c23.3,8.6,57.3,41,55.6,41.9,17.2-2,26.7,5.7,30.7,20.5Z"/><path class="eef94e62-a92a-4c8f-a6c2-4175acb4c474" d="M248.6,274.4c2.4-23.1.8-47.3-7.1-67.7,2.3-2.8,2.5-4.6,3.5-8.1,8.2.6,14.3,2.4,21.8,4.7l36,71.1Z"/><path class="a8f8d3ad-505f-4c6f-a49a-b1452a4a0e1b" d="M160.2,274.4l.8-6c17.3-.7,28.5-26.7,15.8-40.4,5.4-9.1,10.1-14.8,19.3-20.3,6,6.8,13.2,9,21.6,7.8a116.7,116.7,0,0,1,5.8,58.9Z"/><path class="e114c708-fe53-417e-abe4-61dd26c9b98a" d="M81.2,274.7l68.4-134.5c17.2,9.4,30.7,19.5,43,33.2-3.6,4.4-5.1,8.9-4.1,16.8-11.2,5.9-20.5,15.1-28.3,27.1-26.8-5.2-41.8,34.6-19.2,46.7-.9,4.7-.5,4-1.1,11.2Z"/><path class="e8fccacc-2ca9-4b45-a0fb-aa86f5d198fd" d="M256.1,182,191.9,57.2l-31.1,61.2c18.5,6.8,52.5,40.6,54.1,40.4,16.3-1.8,27.3,9.3,29.7,21Z"/></svg>