<svg id="b5465bd9-ec63-4edc-94f9-c8f1cc6a8752" data-name="Слой 1" xmlns="http://www.w3.org/2000/svg" xmlns:xlink="http://www.w3.org/1999/xlink" viewBox="0 0 500 500"><defs><style>.b72a68c7-3435-4428-8e91-e6dc5cbc29b2{fill:url(#ff3f8418-64e3-4181-b288-f4080e14a2fa);}.b072c38b-ad13-4d30-b0a6-e41180c3886f{fill:#a5902b;}.e8eefa4a-aecc-4567-8c78-16ebeb03acbf{fill:url(#a2b6b461-1c21-418f-bfd9-e25c2ad7ce98);}.e3e2ed5b-e491-4938-89c5-9c7f2a2b4815{fill:#fff;}.aaf8cd3c-c467-4932-a44a-b70232a56696{fill:#aaa;}.a6642d7e-e8e2-47b4-b3c5-bf89760e49d2{fill:#f91919;}.ada08781-2c7f-42e3-a63a-26d04e403d9e{fill:#1a911a;}</style><linearGradient id="ff3f8418-64e3-4181-b288-f4080e14a2fa" y1="250" x2="500" y2="250" gradientUnits="userSpaceOnUse"><stop offset="0" stop-color="#ffe82a"/><stop offset="0.5" stop-color="#fff5d4"/><stop offset="0.94" stop-color="#fff36a"/></linearGradient><linearGradient id="a2b6b461-1c21-418f-bfd9-e25c2ad7ce98" x1="25.4" y1="250" x2="474.6" y2="250" gradientUnits="userSpaceOnUse"><stop offset="0" stop-color="#ffecaa"/><stop offset="0.5" stop-color="#fff5d4"/><stop offset="0.94" stop-color="#fffbd4"/></linearGradient></defs><circle class="b72a68c7-3435-4428-8e91-e6dc5cbc29b2" cx="250" cy="250" r="250"/><circle class="b072c38b-ad13-4d30-b0a6-e41180c3886f" cx="250" cy="250" r="226.2"/><circle class="e8eefa4a-aecc-4567-8c78-16ebeb03acbf" cx="250" cy="250" r="224.6"/><path class="e3e2ed5b-e491-4938-89c5-9c7f2a2b4815" d="M298.1,30.6,214.7,471.8l1.5.3L299.6,31Z" transform="translate(0)"/><path class="e3e2ed5b-e491-4938-89c5-9c7f2a2b4815" d="M292.3,29.4,208.9,470.8l1.5.3L293.8,29.7Z" transform="translate(0)"/><path class="e3e2ed5b-e491-4938-89c5-9c7f2a2b4815" d="M288.4,28.7,205.1,470.1l1.5.3L289.9,29Z" transform="translate(0)"/><path class="e3e2ed5b-e491-4938-89c5-9c7f2a2b4815" d="M294.2,29.8,210.9,471.1l1.5.3L295.7,30.1Z" transform="translate(0)"/><path class="e3e2ed5b-e491-4938-89c5-9c7f2a2b4815" d="M290.4,29.1,207,470.4l1.5.3L291.9,29.4Z" transform="translate(0)"/><path class="e3e2ed5b-e491-4938-89c5-9c7f2a2b4815" d="M282.6,27.8l-83.3,441,1.5.3L284.2,28Z" transform="translate(0)"/><path class="e3e2ed5b-e491-4938-89c5-9c7f2a2b4815" d="M235.1,25.9,154.4,453.3l1.5.6L236.7,25.8Z" transform="translate(0)"/><path class="e3e2ed5b-e491-4938-89c5-9c7f2a2b4815" d="M286.5,28.4,203.2,469.7l1.4.3L288,28.7Z" transform="translate(0)"/><path class="e3e2ed5b-e491-4938-89c5-9c7f2a2b4815" d="M284.6,28.1,201.2,469.2l1.5.4L286.1,28.3Z" transform="translate(0)"/><path class="e3e2ed5b-e491-4938-89c5-9c7f2a2b4815" d="M320.8,36.9,238.2,474.3h1.5L322.3,37.4Z" transform="translate(0)"/><path class="e3e2ed5b-e491-4938-89c5-9c7f2a2b4815" d="M313.3,34.5l-83,439.2h1.5l83-438.9Z" transform="translate(0)"/><path class="e3e2ed5b-e491-4938-89c5-9c7f2a2b4815" d="M315.2,35,232.3,473.8l1.5.2L316.6,35.5Z" transform="translate(0)"/><path class="e3e2ed5b-e491-4938-89c5-9c7f2a2b4815" d="M311.4,34,228.3,473.5l1.6.2,83-439.3Z" transform="translate(0)"/><path class="e3e2ed5b-e491-4938-89c5-9c7f2a2b4815" d="M278.7,27.3,195.5,467.9l1.5.4L280.3,27.5Z" transform="translate(0)"/><path class="e3e2ed5b-e491-4938-89c5-9c7f2a2b4815" d="M300,31,216.6,472.1l1.6.2L301.5,31.4Z" transform="translate(0)"/><path class="e3e2ed5b-e491-4938-89c5-9c7f2a2b4815" d="M318.9,36.2,236.2,474.1l1.5.2L320.4,36.7Z" transform="translate(0)"/><path class="e3e2ed5b-e491-4938-89c5-9c7f2a2b4815" d="M317,35.6,234.2,474h1.6l82.7-438Z" transform="translate(0)"/><path class="e3e2ed5b-e491-4938-89c5-9c7f2a2b4815" d="M305.7,32.4,222.5,472.9l1.5.2L307.2,32.8Z" transform="translate(0)"/><path class="e3e2ed5b-e491-4938-89c5-9c7f2a2b4815" d="M303.8,31.9,220.5,472.6l1.6.2L305.3,32.3Z" transform="translate(0)"/><path class="e3e2ed5b-e491-4938-89c5-9c7f2a2b4815" d="M309.5,33.4l-83.1,440h1.5L311,33.8Z" transform="translate(0)"/><path class="e3e2ed5b-e491-4938-89c5-9c7f2a2b4815" d="M307.6,32.9,224.4,473.1l1.6.2,83.1-440Z" transform="translate(0)"/><path class="e3e2ed5b-e491-4938-89c5-9c7f2a2b4815" d="M301.9,31.5,218.6,472.4l1.5.2L303.4,31.8Z" transform="translate(0)"/><path class="e3e2ed5b-e491-4938-89c5-9c7f2a2b4815" d="M250,25.4h-.8L167.3,458.8l1.5.6,82-434Z" transform="translate(0)"/><path class="e3e2ed5b-e491-4938-89c5-9c7f2a2b4815" d="M245.2,25.5,163.6,457.4l1.5.5L246.8,25.5Z" transform="translate(0)"/><path class="e3e2ed5b-e491-4938-89c5-9c7f2a2b4815" d="M399.8,82.7,328.5,460.5l1.7-.7,71-375.9Z" transform="translate(0)"/><path class="e3e2ed5b-e491-4938-89c5-9c7f2a2b4815" d="M251.2,25.4l-82,434.2,1.4.5L252.7,25.5Z" transform="translate(0)"/><path class="e3e2ed5b-e491-4938-89c5-9c7f2a2b4815" d="M255.2,25.5,172.9,461l1.5.5L256.7,25.6Z" transform="translate(0)"/><path class="e3e2ed5b-e491-4938-89c5-9c7f2a2b4815" d="M253.2,25.5,171,460.3l1.5.6L254.7,25.5Z" transform="translate(0)"/><path class="e3e2ed5b-e491-4938-89c5-9c7f2a2b4815" d="M243.2,25.6l-81.4,431,1.4.6L244.8,25.5Z" transform="translate(0)"/><path class="e3e2ed5b-e491-4938-89c5-9c7f2a2b4815" d="M239.2,25.7,158.1,454.9l1.4.7,81.2-430Z" transform="translate(0)"/><path class="e3e2ed5b-e491-4938-89c5-9c7f2a2b4815" d="M237.2,25.8,156.3,454.1l1.4.6,81-429Z" transform="translate(0)"/><path class="e3e2ed5b-e491-4938-89c5-9c7f2a2b4815" d="M241.2,25.6,159.9,455.8l1.5.6L242.8,25.6Z" transform="translate(0)"/><path class="e3e2ed5b-e491-4938-89c5-9c7f2a2b4815" d="M272.9,26.6,189.8,466.4l1.5.4L274.4,26.7Z" transform="translate(0)"/><path class="e3e2ed5b-e491-4938-89c5-9c7f2a2b4815" d="M270.9,26.4l-83,439.4,1.5.5L272.5,26.5Z" transform="translate(0)"/><path class="e3e2ed5b-e491-4938-89c5-9c7f2a2b4815" d="M269,26.3l-83,439,1.5.4,83-439.3Z" transform="translate(0)"/><path class="e3e2ed5b-e491-4938-89c5-9c7f2a2b4815" d="M276.8,27,193.6,467.5l1.5.3L278.3,27.2Z" transform="translate(0)"/><path class="e3e2ed5b-e491-4938-89c5-9c7f2a2b4815" d="M257.1,25.6l-82.3,436,1.4.5L258.7,25.6Z" transform="translate(0)"/><path class="e3e2ed5b-e491-4938-89c5-9c7f2a2b4815" d="M274.9,26.8,191.7,466.9l1.5.4L276.4,27Z" transform="translate(0)"/><path class="e3e2ed5b-e491-4938-89c5-9c7f2a2b4815" d="M267,26.1,184.1,464.8l1.5.4,82.9-439Z" transform="translate(0)"/><path class="e3e2ed5b-e491-4938-89c5-9c7f2a2b4815" d="M265,26,182.3,464.2l1.4.4L266.6,26.1Z" transform="translate(0)"/><path class="e3e2ed5b-e491-4938-89c5-9c7f2a2b4815" d="M261.1,25.7,178.5,462.9l1.5.5L262.6,25.8Z" transform="translate(0)"/><path class="e3e2ed5b-e491-4938-89c5-9c7f2a2b4815" d="M259.1,25.6,176.6,462.3l1.5.5L260.7,25.7Z" transform="translate(0)"/><path class="e3e2ed5b-e491-4938-89c5-9c7f2a2b4815" d="M263.1,25.8,180.4,463.5l1.5.5L264.6,25.9Z" transform="translate(0)"/><path class="e3e2ed5b-e491-4938-89c5-9c7f2a2b4815" d="M280.7,27.5,197.4,468.3l1.5.4,83.3-441Z" transform="translate(0)"/><path class="e3e2ed5b-e491-4938-89c5-9c7f2a2b4815" d="M373.8,62.6,296.9,469.7l1.6-.4L375.1,63.5Z" transform="translate(0)"/><path class="e3e2ed5b-e491-4938-89c5-9c7f2a2b4815" d="M375.5,63.7,298.9,469.2l1.7-.4L376.9,64.7Z" transform="translate(0)"/><path class="e3e2ed5b-e491-4938-89c5-9c7f2a2b4815" d="M372,61.4,294.8,470.1l1.6-.3,77-407.5Z" transform="translate(0)"/><path class="e3e2ed5b-e491-4938-89c5-9c7f2a2b4815" d="M379,66.2l-75.9,402,1.6-.4L380.4,67.2Z" transform="translate(0)"/><path class="e3e2ed5b-e491-4938-89c5-9c7f2a2b4815" d="M322.7,37.5,240.1,474.3h1.6L324.1,38Z" transform="translate(0)"/><path class="e3e2ed5b-e491-4938-89c5-9c7f2a2b4815" d="M363,56,284.5,472l1.6-.3L364.5,56.8Z" transform="translate(0)"/><path class="e3e2ed5b-e491-4938-89c5-9c7f2a2b4815" d="M370.2,60.3,292.7,470.5l1.6-.3,77.3-409Z" transform="translate(0)"/><path class="e3e2ed5b-e491-4938-89c5-9c7f2a2b4815" d="M366.6,58l-78,413.2,1.6-.3L368,58.9Z" transform="translate(0)"/><path class="e3e2ed5b-e491-4938-89c5-9c7f2a2b4815" d="M380.8,67.5,305.2,467.7l1.6-.4L382.2,68.5Z" transform="translate(0)"/><path class="e3e2ed5b-e491-4938-89c5-9c7f2a2b4815" d="M368.4,59.2,290.6,470.9l1.7-.3L369.8,60.1Z" transform="translate(0)"/><path class="e3e2ed5b-e491-4938-89c5-9c7f2a2b4815" d="M364.8,57,286.5,471.6l1.6-.3L366.2,57.8Z" transform="translate(0)"/><path class="e3e2ed5b-e491-4938-89c5-9c7f2a2b4815" d="M394.7,78.3,322.1,462.7l1.7-.6L396.1,79.4Z" transform="translate(0)"/><path class="e3e2ed5b-e491-4938-89c5-9c7f2a2b4815" d="M393,76.8,320,463.4l1.6-.5L394.3,78Z" transform="translate(0)"/><path class="e3e2ed5b-e491-4938-89c5-9c7f2a2b4815" d="M396.4,79.8,324.2,462l1.7-.6L397.8,80.9Z" transform="translate(0)"/><path class="e3e2ed5b-e491-4938-89c5-9c7f2a2b4815" d="M391.3,75.4,317.8,464.1l1.7-.5L392.6,76.5Z" transform="translate(0)"/><path class="e3e2ed5b-e491-4938-89c5-9c7f2a2b4815" d="M398.1,81.3l-71.8,380,1.7-.6L399.5,82.4Z" transform="translate(0)"/><path class="e3e2ed5b-e491-4938-89c5-9c7f2a2b4815" d="M382.6,68.7,307.3,467.2l1.6-.5,75-397Z" transform="translate(0)"/><path class="e3e2ed5b-e491-4938-89c5-9c7f2a2b4815" d="M386.1,71.3,311.5,466l1.6-.5L387.4,72.4Z" transform="translate(0)"/><path class="e3e2ed5b-e491-4938-89c5-9c7f2a2b4815" d="M384.3,70,309.4,466.6l1.6-.5L385.7,71Z" transform="translate(0)"/><path class="e3e2ed5b-e491-4938-89c5-9c7f2a2b4815" d="M389.5,74.1,315.7,464.8l1.7-.5L390.9,75.1Z" transform="translate(0)"/><path class="e3e2ed5b-e491-4938-89c5-9c7f2a2b4815" d="M387.8,72.7,313.6,465.4l1.7-.5L389.1,73.8Z" transform="translate(0)"/><path class="e3e2ed5b-e491-4938-89c5-9c7f2a2b4815" d="M377.3,65,301,468.7l1.7-.4L378.7,66Z" transform="translate(0)"/><path class="e3e2ed5b-e491-4938-89c5-9c7f2a2b4815" d="M335.7,42.4,254.1,474.5h1.5L337.2,42.9Z" transform="translate(0)"/><path class="e3e2ed5b-e491-4938-89c5-9c7f2a2b4815" d="M333.8,41.6,252.1,474.5h1.5L335.3,42.2Z" transform="translate(0)"/><path class="e3e2ed5b-e491-4938-89c5-9c7f2a2b4815" d="M332,40.9,250.1,474.6h1.5L333.4,41.5Z" transform="translate(0)"/><path class="e3e2ed5b-e491-4938-89c5-9c7f2a2b4815" d="M339.4,43.9,258.1,474.4h1.5L340.8,44.6Z" transform="translate(0)"/><path class="e3e2ed5b-e491-4938-89c5-9c7f2a2b4815" d="M337.6,43.1,256.1,474.4h1.5L339,43.8Z" transform="translate(0)"/><path class="e3e2ed5b-e491-4938-89c5-9c7f2a2b4815" d="M326.4,38.8,244.1,474.5h1.6L327.9,39.3Z" transform="translate(0)"/><path class="e3e2ed5b-e491-4938-89c5-9c7f2a2b4815" d="M324.5,38.1,242.1,474.4h1.6L326,38.6Z" transform="translate(0)"/><path class="e3e2ed5b-e491-4938-89c5-9c7f2a2b4815" d="M330.1,40.2l-82,434.4h1.5l82-433.8Z" transform="translate(0)"/><path class="e3e2ed5b-e491-4938-89c5-9c7f2a2b4815" d="M341.2,44.8,260.1,474.3h1.6l81-428.9Z" transform="translate(0)"/><path class="e3e2ed5b-e491-4938-89c5-9c7f2a2b4815" d="M328.3,39.4,246.1,474.5h1.6L329.7,40Z" transform="translate(0)"/><path class="e3e2ed5b-e491-4938-89c5-9c7f2a2b4815" d="M361.2,54.9,282.4,472.2l1.6-.2L362.7,55.7Z" transform="translate(0)"/><path class="e3e2ed5b-e491-4938-89c5-9c7f2a2b4815" d="M352.2,50l-80,423.5,1.6-.2L353.6,50.8Z" transform="translate(0)"/><path class="e3e2ed5b-e491-4938-89c5-9c7f2a2b4815" d="M354,51,274.2,473.3l1.6-.2L355.4,51.7A6.1,6.1,0,0,0,354,51Z" transform="translate(0)"/><path class="e3e2ed5b-e491-4938-89c5-9c7f2a2b4815" d="M355.8,51.9,276.3,473l1.6-.2L357.3,52.6Z" transform="translate(0)"/><path class="e3e2ed5b-e491-4938-89c5-9c7f2a2b4815" d="M359.4,53.9l-79,418.6,1.6-.2L360.9,54.7Z" transform="translate(0)"/><path class="e3e2ed5b-e491-4938-89c5-9c7f2a2b4815" d="M357.6,52.8l-79.3,420,1.6-.2L359.1,53.7Z" transform="translate(0)"/><path class="e3e2ed5b-e491-4938-89c5-9c7f2a2b4815" d="M346.7,47.3,266.1,474l1.6-.2L348.2,48Z" transform="translate(0)"/><path class="e3e2ed5b-e491-4938-89c5-9c7f2a2b4815" d="M350.4,49.1,270.2,473.7l1.6-.2,80-423.7Z" transform="translate(0)"/><path class="e3e2ed5b-e491-4938-89c5-9c7f2a2b4815" d="M344.9,46.4,264.1,474.1h1.6L346.3,47.1Z" transform="translate(0)"/><path class="e3e2ed5b-e491-4938-89c5-9c7f2a2b4815" d="M343.1,45.6l-81,428.7,1.6-.2L344.5,46.3Z" transform="translate(0)"/><path class="e3e2ed5b-e491-4938-89c5-9c7f2a2b4815" d="M348.6,48.2,268.2,473.8h1.5L350,48.9Z" transform="translate(0)"/><path class="e3e2ed5b-e491-4938-89c5-9c7f2a2b4815" d="M247.2,25.5,165.5,458.1l1.4.6L248.8,25.4Z" transform="translate(0)"/><path class="e3e2ed5b-e491-4938-89c5-9c7f2a2b4815" d="M108.1,76,54.4,360.3a19.8,19.8,0,0,0,1.1,2L109.9,74.5Z" transform="translate(0)"/><path class="e3e2ed5b-e491-4938-89c5-9c7f2a2b4815" d="M105.7,77.9,52.9,357.7c.3.7.8,1.3,1.1,2L107.6,76.4Z" transform="translate(0)"/><path class="e3e2ed5b-e491-4938-89c5-9c7f2a2b4815" d="M110.4,74.1,55.9,362.9c.4.7.7,1.4,1.1,2L112.2,72.7Z" transform="translate(0)"/><path class="e3e2ed5b-e491-4938-89c5-9c7f2a2b4815" d="M115.1,70.4,58.9,368l1.2,1.9L116.9,69.1Z" transform="translate(0)"/><path class="e3e2ed5b-e491-4938-89c5-9c7f2a2b4815" d="M112.8,72.3,57.4,365.5l1.2,2,56-296.7Z" transform="translate(0)"/><path class="e3e2ed5b-e491-4938-89c5-9c7f2a2b4815" d="M117.4,68.7l-57,301.7,1.2,1.9L119.2,67.5Z" transform="translate(0)"/><path class="e3e2ed5b-e491-4938-89c5-9c7f2a2b4815" d="M96.1,86.5,47,346.3l1.2,2.3L98,84.7Z" transform="translate(0)"/><path class="e3e2ed5b-e491-4938-89c5-9c7f2a2b4815" d="M103.3,80,51.4,354.9l1.1,2.2L105.2,78.4Z" transform="translate(0)"/><path class="e3e2ed5b-e491-4938-89c5-9c7f2a2b4815" d="M98.5,84.2l-50,265c.4.7.7,1.5,1.1,2.2L100.4,82.5Z" transform="translate(0)"/><path class="e3e2ed5b-e491-4938-89c5-9c7f2a2b4815" d="M100.9,82.1,49.9,352l1.2,2.3L102.8,80.4Z" transform="translate(0)"/><path class="e3e2ed5b-e491-4938-89c5-9c7f2a2b4815" d="M126.6,62.4,66.7,379.6l1.2,1.8L128.4,61.2Z" transform="translate(0)"/><path class="e3e2ed5b-e491-4938-89c5-9c7f2a2b4815" d="M135.6,56.7,73,388.2a18.3,18.3,0,0,0,1.3,1.6L137.4,55.7Z" transform="translate(0)"/><path class="e3e2ed5b-e491-4938-89c5-9c7f2a2b4815" d="M142.3,52.9,77.9,394.2l1.2,1.5,65-343.8Z" transform="translate(0)"/><path class="e3e2ed5b-e491-4938-89c5-9c7f2a2b4815" d="M140.1,54.1,76.2,392.3l1.3,1.5L141.9,53.1Z" transform="translate(0)"/><path class="e3e2ed5b-e491-4938-89c5-9c7f2a2b4815" d="M137.9,55.4,74.6,390.2a10.1,10.1,0,0,0,1.3,1.6L139.6,54.4Z" transform="translate(0)"/><path class="e3e2ed5b-e491-4938-89c5-9c7f2a2b4815" d="M131.1,59.5,69.8,384.1a18.3,18.3,0,0,0,1.3,1.6L132.9,58.3Z" transform="translate(0)"/><path class="e3e2ed5b-e491-4938-89c5-9c7f2a2b4815" d="M128.9,60.9l-60.7,321,1.3,1.7L130.6,59.8Z" transform="translate(0)"/><path class="e3e2ed5b-e491-4938-89c5-9c7f2a2b4815" d="M122,65.5,63.5,375.2l1.2,1.7L123.8,64.2Z" transform="translate(0)"/><path class="e3e2ed5b-e491-4938-89c5-9c7f2a2b4815" d="M124.3,63.8,65.1,377.4l1.2,1.8L126.1,62.7Z" transform="translate(0)"/><path class="e3e2ed5b-e491-4938-89c5-9c7f2a2b4815" d="M93.7,88.8,45.6,343.1c.4.9.8,1.7,1.1,2.5L95.6,87Z" transform="translate(0)"/><path class="e3e2ed5b-e491-4938-89c5-9c7f2a2b4815" d="M119.7,67.1,62,372.8l1.2,1.9L121.5,65.8Z" transform="translate(0)"/><path class="e3e2ed5b-e491-4938-89c5-9c7f2a2b4815" d="M133.4,58l-62,328.1a10.1,10.1,0,0,0,1.3,1.6L135.1,57Z" transform="translate(0)"/><path class="e3e2ed5b-e491-4938-89c5-9c7f2a2b4815" d="M51,145.9,26.7,274.3c.2,1.7.4,3.3.7,5l26-137.9Z" transform="translate(0)"/><path class="e3e2ed5b-e491-4938-89c5-9c7f2a2b4815" d="M54.1,140.2,27.5,280.7c.3,1.5.5,3.1.7,4.7L56.4,136.2Z" transform="translate(0)"/><path class="e3e2ed5b-e491-4938-89c5-9c7f2a2b4815" d="M59.9,130.4,29.4,292c.2,1.4.5,2.8.8,4.1L62.1,127Z" transform="translate(0)"/><path class="e3e2ed5b-e491-4938-89c5-9c7f2a2b4815" d="M47.8,152.1l-21.7,115c.2,1.9.3,3.9.5,5.9L50.3,147.2C49.5,148.8,48.6,150.4,47.8,152.1Z" transform="translate(0)"/><path class="e3e2ed5b-e491-4938-89c5-9c7f2a2b4815" d="M57,135.1,28.4,286.6c.2,1.4.5,2.8.8,4.2L59.3,131.4Z" transform="translate(0)"/><path class="e3e2ed5b-e491-4938-89c5-9c7f2a2b4815" d="M40.8,168.3,25.4,249.7v.3c0,2.4.1,4.7.2,7.1l18.1-96C42.7,163.5,41.7,165.9,40.8,168.3Z" transform="translate(0)"/><path class="e3e2ed5b-e491-4938-89c5-9c7f2a2b4815" d="M26.1,233.3l9.5-50.4A226.9,226.9,0,0,0,26.1,233.3Z" transform="translate(0)"/><path class="e3e2ed5b-e491-4938-89c5-9c7f2a2b4815" d="M36.6,180,25.8,237.1c-.2,3.3-.3,6.6-.3,10L40,170.4C38.8,173.6,37.6,176.8,36.6,180Z" transform="translate(0)"/><path class="e3e2ed5b-e491-4938-89c5-9c7f2a2b4815" d="M44.4,159.5,25.6,259.1c.1,2.1.2,4.2.4,6.4L47.1,153.6Z" transform="translate(0)"/><path class="e3e2ed5b-e491-4938-89c5-9c7f2a2b4815" d="M62.7,126,30.4,297.2l.9,3.7L64.9,122.8Z" transform="translate(0)"/><path class="e3e2ed5b-e491-4938-89c5-9c7f2a2b4815" d="M73.5,111.2,35,315c.3,1.1.6,2.1,1,3.2L75.6,108.6Z" transform="translate(0)"/><path class="e3e2ed5b-e491-4938-89c5-9c7f2a2b4815" d="M83.8,98.9,40.1,330l1.1,2.7L85.7,96.9Z" transform="translate(0)"/><path class="e3e2ed5b-e491-4938-89c5-9c7f2a2b4815" d="M81.2,101.9,38.8,326.6l1,2.7L83.2,99.6Z" transform="translate(0)"/><path class="e3e2ed5b-e491-4938-89c5-9c7f2a2b4815" d="M65.5,122l-34,179.9c.3,1.2.5,2.5.9,3.7L67.6,119Z" transform="translate(0)"/><path class="e3e2ed5b-e491-4938-89c5-9c7f2a2b4815" d="M88.8,93.7l-46,243.2a18.9,18.9,0,0,1,1.1,2.5L90.7,91.7Z" transform="translate(0)"/><path class="e3e2ed5b-e491-4938-89c5-9c7f2a2b4815" d="M78.7,104.8l-41.2,218c.4,1,.7,2,1,2.9L80.7,102.5Z" transform="translate(0)"/><path class="e3e2ed5b-e491-4938-89c5-9c7f2a2b4815" d="M86.3,96.3,41.5,333.5c.3.8.7,1.7,1,2.6L88.2,94.3Z" transform="translate(0)"/><path class="e3e2ed5b-e491-4938-89c5-9c7f2a2b4815" d="M70.9,114.5,33.8,310.8l.9,3.3L72.9,111.9C72.3,112.8,71.6,113.6,70.9,114.5Z" transform="translate(0)"/><path class="e3e2ed5b-e491-4938-89c5-9c7f2a2b4815" d="M68.2,118.2,32.6,306.6l.9,3.3L70.3,115.2Z" transform="translate(0)"/><path class="e3e2ed5b-e491-4938-89c5-9c7f2a2b4815" d="M91.3,91.1,44.2,340c.4.9.8,1.7,1.1,2.5L93.2,89.3Z" transform="translate(0)"/><path class="e3e2ed5b-e491-4938-89c5-9c7f2a2b4815" d="M76.1,107.8,36.2,319c.4,1,.7,2,1,3L78.1,105.5C77.5,106.3,76.8,107,76.1,107.8Z" transform="translate(0)"/><path class="e3e2ed5b-e491-4938-89c5-9c7f2a2b4815" d="M179.3,36.8,106.4,422.7l1.3,1.1L180.9,36.3Z" transform="translate(0)"/><path class="e3e2ed5b-e491-4938-89c5-9c7f2a2b4815" d="M202.4,30.5,125.6,437l1.4.9L204,30.1Z" transform="translate(0)"/><path class="e3e2ed5b-e491-4938-89c5-9c7f2a2b4815" d="M200.3,31,123.8,435.8l1.4.9L201.9,30.6Z" transform="translate(0)"/><path class="e3e2ed5b-e491-4938-89c5-9c7f2a2b4815" d="M204.5,30,127.4,438.1l1.4.9L206.1,29.7Z" transform="translate(0)"/><path class="e3e2ed5b-e491-4938-89c5-9c7f2a2b4815" d="M206.5,29.6,129.2,439.3l1.3.9L208.1,29.4Z" transform="translate(0)"/><path class="e3e2ed5b-e491-4938-89c5-9c7f2a2b4815" d="M210.7,28.9l-78,412.7,1.4.8L212.3,28.6Z" transform="translate(0)"/><path class="e3e2ed5b-e491-4938-89c5-9c7f2a2b4815" d="M208.6,29.3,130.9,440.4l1.4.9L210.2,29Z" transform="translate(0)"/><path class="e3e2ed5b-e491-4938-89c5-9c7f2a2b4815" d="M189.8,33.6,115,429.5l1.4,1L191.5,33.2Z" transform="translate(0)"/><path class="e3e2ed5b-e491-4938-89c5-9c7f2a2b4815" d="M194,32.4,118.6,432.1l1.3.9L195.7,32.1Z" transform="translate(0)"/><path class="e3e2ed5b-e491-4938-89c5-9c7f2a2b4815" d="M198.2,31.5,122.1,434.6l1.3.9L199.8,31.1Z" transform="translate(0)"/><path class="e3e2ed5b-e491-4938-89c5-9c7f2a2b4815" d="M196.1,32,120.3,433.3l1.4,1L197.8,31.6Z" transform="translate(0)"/><path class="e3e2ed5b-e491-4938-89c5-9c7f2a2b4815" d="M191.9,33,116.8,430.8l1.4,1L193.6,32.6Z" transform="translate(0)"/><path class="e3e2ed5b-e491-4938-89c5-9c7f2a2b4815" d="M227,26.6l-79.9,423,1.5.8,80-424Z" transform="translate(0)"/><path class="e3e2ed5b-e491-4938-89c5-9c7f2a2b4815" d="M223,27.1,143.5,447.8l1.4.7L224.6,26.9Z" transform="translate(0)"/><path class="e3e2ed5b-e491-4938-89c5-9c7f2a2b4815" d="M212.7,28.5,134.5,442.6l1.4.8L214.3,28.2Z" transform="translate(0)"/><path class="e3e2ed5b-e491-4938-89c5-9c7f2a2b4815" d="M229.1,26.4,148.9,450.6l1.5.7,80.3-425Z" transform="translate(0)"/><path class="e3e2ed5b-e491-4938-89c5-9c7f2a2b4815" d="M231.1,26.3,150.8,451.5l1.4.7L232.7,26.1Z" transform="translate(0)"/><path class="e3e2ed5b-e491-4938-89c5-9c7f2a2b4815" d="M225,26.8,145.3,448.7l1.4.7L226.6,26.6Z" transform="translate(0)"/><path class="e3e2ed5b-e491-4938-89c5-9c7f2a2b4815" d="M220.9,27.3,141.7,446.8l1.4.8L222.5,27.1Z" transform="translate(0)"/><path class="e3e2ed5b-e491-4938-89c5-9c7f2a2b4815" d="M214.8,28.2,136.3,443.7l1.4.8L216.4,27.9Z" transform="translate(0)"/><path class="e3e2ed5b-e491-4938-89c5-9c7f2a2b4815" d="M216.8,27.9,138.1,444.7l1.4.8L218.4,27.7Z" transform="translate(0)"/><path class="e3e2ed5b-e491-4938-89c5-9c7f2a2b4815" d="M218.9,27.6l-79,418.1,1.4.8L220.5,27.4Z" transform="translate(0)"/><path class="e3e2ed5b-e491-4938-89c5-9c7f2a2b4815" d="M170.7,39.8,99.5,416.7l1.4,1.2L172.4,39.2Z" transform="translate(0)"/><path class="e3e2ed5b-e491-4938-89c5-9c7f2a2b4815" d="M157.7,45.2,89.4,406.9l1.3,1.4L159.4,44.5Z" transform="translate(0)"/><path class="e3e2ed5b-e491-4938-89c5-9c7f2a2b4815" d="M159.9,44.3,91.1,408.7a15.9,15.9,0,0,1,1.3,1.3L161.6,43.5Z" transform="translate(0)"/><path class="e3e2ed5b-e491-4938-89c5-9c7f2a2b4815" d="M164.3,42.4,94.4,411.9l1.4,1.3L165.9,41.7Z" transform="translate(0)"/><path class="e3e2ed5b-e491-4938-89c5-9c7f2a2b4815" d="M155.6,46.2l-67.9,359,1.3,1.4L157.3,45.5Z" transform="translate(0)"/><path class="e3e2ed5b-e491-4938-89c5-9c7f2a2b4815" d="M162.1,43.3l-69.3,367,1.3,1.3,69.7-369Z" transform="translate(0)"/><path class="e3e2ed5b-e491-4938-89c5-9c7f2a2b4815" d="M153.4,47.2,86.1,403.5l1.3,1.3L155.1,46.4Z" transform="translate(0)"/><path class="e3e2ed5b-e491-4938-89c5-9c7f2a2b4815" d="M146.8,50.6,81.1,398l1.3,1.5L148.5,49.7Z" transform="translate(0)"/><path class="e3e2ed5b-e491-4938-89c5-9c7f2a2b4815" d="M149,49.4,82.8,399.9a8.6,8.6,0,0,0,1.3,1.4L150.7,48.5Z" transform="translate(0)"/><path class="e3e2ed5b-e491-4938-89c5-9c7f2a2b4815" d="M151.2,48.3,84.4,401.7l1.3,1.4L152.9,47.4Z" transform="translate(0)"/><path class="e3e2ed5b-e491-4938-89c5-9c7f2a2b4815" d="M166.4,41.5l-70.3,372,1.4,1.3L168.1,40.9Z" transform="translate(0)"/><path class="e3e2ed5b-e491-4938-89c5-9c7f2a2b4815" d="M168.6,40.7,97.8,415.1l1.3,1.3L170.2,40Z" transform="translate(0)"/><path class="e3e2ed5b-e491-4938-89c5-9c7f2a2b4815" d="M233.1,26.1,152.6,452.4l1.4.7L234.7,26Z" transform="translate(0)"/><path class="e3e2ed5b-e491-4938-89c5-9c7f2a2b4815" d="M181.4,36.1l-73.3,388,1.4,1L183.1,35.6Z" transform="translate(0)"/><path class="e3e2ed5b-e491-4938-89c5-9c7f2a2b4815" d="M183.5,35.4l-73.7,390,1.4,1.1,74-391.6Z" transform="translate(0)"/><path class="e3e2ed5b-e491-4938-89c5-9c7f2a2b4815" d="M185.6,34.8l-74,392,1.3,1.1L187.3,34.3Z" transform="translate(0)"/><path class="e3e2ed5b-e491-4938-89c5-9c7f2a2b4815" d="M144.6,51.7,79.5,396.1l1.3,1.5L146.3,50.8Z" transform="translate(0)"/><path class="e3e2ed5b-e491-4938-89c5-9c7f2a2b4815" d="M187.7,34.2l-74.4,394,1.4,1L189.4,33.7Z" transform="translate(0)"/><path class="e3e2ed5b-e491-4938-89c5-9c7f2a2b4815" d="M172.9,39,101.2,418.2l1.4,1.2,71.9-381Z" transform="translate(0)"/><path class="e3e2ed5b-e491-4938-89c5-9c7f2a2b4815" d="M175,38.3,102.9,419.7l1.4,1.1L176.7,37.7Z" transform="translate(0)"/><path class="e3e2ed5b-e491-4938-89c5-9c7f2a2b4815" d="M177.1,37.6,104.7,421.2a6.9,6.9,0,0,0,1.3,1.1L178.8,37Z" transform="translate(0)"/><path class="e3e2ed5b-e491-4938-89c5-9c7f2a2b4815" d="M296.1,30.2,212.8,471.5l1.5.2L297.6,30.5Z" transform="translate(0)"/><path class="e3e2ed5b-e491-4938-89c5-9c7f2a2b4815" d="M415,97.6,348,452.1l1.7-.9L416.3,99Z" transform="translate(0)"/><path class="e3e2ed5b-e491-4938-89c5-9c7f2a2b4815" d="M410,92.4,341.5,455.1l1.7-.8L411.3,93.8Z" transform="translate(0)"/><path class="e3e2ed5b-e491-4938-89c5-9c7f2a2b4815" d="M449.5,146.9,398.2,418.7l1.9-1.6,50.6-268Z" transform="translate(0)"/><path class="e3e2ed5b-e491-4938-89c5-9c7f2a2b4815" d="M446.6,141.4,393.4,422.8l1.9-1.6,52.5-277.7Z" transform="translate(0)"/><path class="e3e2ed5b-e491-4938-89c5-9c7f2a2b4815" d="M445.1,138.8l-54,285.9,1.8-1.4,53.4-282.5Z" transform="translate(0)"/><path class="e3e2ed5b-e491-4938-89c5-9c7f2a2b4815" d="M442.1,133.5,386.4,428.4l1.8-1.4,55.1-291.4Z" transform="translate(0)"/><path class="e3e2ed5b-e491-4938-89c5-9c7f2a2b4815" d="M451,149.8,400.6,416.6l1.9-1.7L452.1,152A15.1,15.1,0,0,0,451,149.8Z" transform="translate(0)"/><path class="e3e2ed5b-e491-4938-89c5-9c7f2a2b4815" d="M443.6,136.1,388.7,426.6l1.9-1.5,54.2-286.9Z" transform="translate(0)"/><path class="e3e2ed5b-e491-4938-89c5-9c7f2a2b4815" d="M452.4,152.6,403,414.4l1.9-1.8L453.5,155A25.6,25.6,0,0,0,452.4,152.6Z" transform="translate(0)"/><path class="e3e2ed5b-e491-4938-89c5-9c7f2a2b4815" d="M458,165.3,412.8,404.6l2-2L459.1,168Z" transform="translate(0)"/><path class="e3e2ed5b-e491-4938-89c5-9c7f2a2b4815" d="M408.3,90.7l-69,365.4,1.7-.8L409.6,92A15.9,15.9,0,0,0,408.3,90.7Z" transform="translate(0)"/><path class="e3e2ed5b-e491-4938-89c5-9c7f2a2b4815" d="M459.4,168.7,415.3,402l2-2.2,43.1-228.4Z" transform="translate(0)"/><path class="e3e2ed5b-e491-4938-89c5-9c7f2a2b4815" d="M460.7,172.1,417.8,399.2c.7-.7,1.3-1.5,2-2.3L461.7,175C461.4,174.1,461.1,173.1,460.7,172.1Z" transform="translate(0)"/><path class="e3e2ed5b-e491-4938-89c5-9c7f2a2b4815" d="M456.7,161.9,410.3,407.2c.7-.6,1.3-1.3,2-2l45.4-240.7C457.4,163.7,457,162.8,456.7,161.9Z" transform="translate(0)"/><path class="e3e2ed5b-e491-4938-89c5-9c7f2a2b4815" d="M462,175.8,420.4,396.3a22,22,0,0,1,2-2.3L463,178.8Z" transform="translate(0)"/><path class="e3e2ed5b-e491-4938-89c5-9c7f2a2b4815" d="M453.8,155.7,405.4,412.1l1.9-1.9,47.6-252.1A25.6,25.6,0,0,0,453.8,155.7Z" transform="translate(0)"/><path class="e3e2ed5b-e491-4938-89c5-9c7f2a2b4815" d="M455.3,158.8,407.9,409.7l1.9-1.9,46.6-246.5C456,160.4,455.6,159.6,455.3,158.8Z" transform="translate(0)"/><path class="e3e2ed5b-e491-4938-89c5-9c7f2a2b4815" d="M440.5,131.1,384,430.2a13.3,13.3,0,0,0,1.9-1.4L441.8,133C441.4,132.4,440.9,131.8,440.5,131.1Z" transform="translate(0)"/><path class="e3e2ed5b-e491-4938-89c5-9c7f2a2b4815" d="M423.2,107,359.1,446.3l1.7-1,63.6-336.7Z" transform="translate(0)"/><path class="e3e2ed5b-e491-4938-89c5-9c7f2a2b4815" d="M413.3,95.9,345.8,453.2l1.7-.8L414.6,97.3Z" transform="translate(0)"/><path class="e3e2ed5b-e491-4938-89c5-9c7f2a2b4815" d="M424.8,109,361.3,445l1.8-1L426,110.6Z" transform="translate(0)"/><path class="e3e2ed5b-e491-4938-89c5-9c7f2a2b4815" d="M421.5,105.1,356.8,447.6l1.8-1,64.2-340Z" transform="translate(0)"/><path class="e3e2ed5b-e491-4938-89c5-9c7f2a2b4815" d="M426.4,111.1,363.5,443.8l1.8-1,62.4-330.1Z" transform="translate(0)"/><path class="e3e2ed5b-e491-4938-89c5-9c7f2a2b4815" d="M439,128.7,381.7,431.9l1.8-1.3,56.7-300Z" transform="translate(0)"/><path class="e3e2ed5b-e491-4938-89c5-9c7f2a2b4815" d="M416.6,99.4,350.2,451l1.7-.9,66-349.2Z" transform="translate(0)"/><path class="e3e2ed5b-e491-4938-89c5-9c7f2a2b4815" d="M418.3,101.3,352.4,449.9l1.8-.9,65.4-346.2Z" transform="translate(0)"/><path class="e3e2ed5b-e491-4938-89c5-9c7f2a2b4815" d="M419.9,103.2,354.6,448.7l1.8-.9,64.8-343.1Z" transform="translate(0)"/><path class="e3e2ed5b-e491-4938-89c5-9c7f2a2b4815" d="M434.3,121.8,374.8,436.7l1.8-1.2,59-312Z" transform="translate(0)"/><path class="e3e2ed5b-e491-4938-89c5-9c7f2a2b4815" d="M411.6,94.2l-68,359.9,1.8-.7L413,95.5Z" transform="translate(0)"/><path class="e3e2ed5b-e491-4938-89c5-9c7f2a2b4815" d="M435.9,124,377.1,435.1l1.8-1.3,58.2-308Z" transform="translate(0)"/><path class="e3e2ed5b-e491-4938-89c5-9c7f2a2b4815" d="M428,113.1,365.8,442.5l1.8-1.1,61.7-326.7Z" transform="translate(0)"/><path class="e3e2ed5b-e491-4938-89c5-9c7f2a2b4815" d="M437.5,126.3,379.4,433.5l1.8-1.3,57.5-304Z" transform="translate(0)"/><path class="e3e2ed5b-e491-4938-89c5-9c7f2a2b4815" d="M429.6,115.1,368,441.1l1.8-1.2,61.1-323.1A10.9,10.9,0,0,1,429.6,115.1Z" transform="translate(0)"/><path class="e3e2ed5b-e491-4938-89c5-9c7f2a2b4815" d="M431.2,117.3,370.3,439.6l1.8-1.1,60.3-319.4Z" transform="translate(0)"/><path class="e3e2ed5b-e491-4938-89c5-9c7f2a2b4815" d="M432.8,119.5,372.6,438.2l1.8-1.2L434,121.3Z" transform="translate(0)"/><path class="e3e2ed5b-e491-4938-89c5-9c7f2a2b4815" d="M448.1,144.1,395.8,420.8l1.9-1.6,51.5-272.9Z" transform="translate(0)"/><path class="e3e2ed5b-e491-4938-89c5-9c7f2a2b4815" d="M474.6,250c0-1.1-.1-2.1-.1-3.2l-16.7,88.4c1-2.5,2.1-5,3-7.6l13.7-72.3C474.5,253.6,474.6,251.8,474.6,250Z" transform="translate(0)"/><path class="e3e2ed5b-e491-4938-89c5-9c7f2a2b4815" d="M474.2,237.7,454.3,343.3c.9-2,1.8-3.9,2.7-6l17.5-92.5C474.4,242.4,474.4,240,474.2,237.7Z" transform="translate(0)"/><path class="e3e2ed5b-e491-4938-89c5-9c7f2a2b4815" d="M473,223.3,447.8,356.4c.9-1.6,1.7-3.2,2.5-4.8l23.3-123.1Z" transform="translate(0)"/><path class="e3e2ed5b-e491-4938-89c5-9c7f2a2b4815" d="M473.7,230.1,451,350.2c.9-1.7,1.7-3.5,2.6-5.3L474.1,236C474,234.1,473.8,232.1,473.7,230.1Z" transform="translate(0)"/><path class="e3e2ed5b-e491-4938-89c5-9c7f2a2b4815" d="M474.4,258l-12.6,66.9c1.3-3.9,2.6-7.8,3.7-11.8l8.1-42.9C474,266.2,474.3,262.1,474.4,258Z" transform="translate(0)"/><path class="e3e2ed5b-e491-4938-89c5-9c7f2a2b4815" d="M401.6,84.3l-71,375.3,1.7-.6L402.9,85.5Z" transform="translate(0)"/><path class="e3e2ed5b-e491-4938-89c5-9c7f2a2b4815" d="M403.2,85.9,332.8,458.8l1.7-.7,70.1-371Z" transform="translate(0)"/><path class="e3e2ed5b-e491-4938-89c5-9c7f2a2b4815" d="M473.2,274.9l-6.4,33.7A220.4,220.4,0,0,0,473.2,274.9Z" transform="translate(0)"/><path class="e3e2ed5b-e491-4938-89c5-9c7f2a2b4815" d="M404.9,87.5,335,457.9l1.6-.6L406.3,88.7Z" transform="translate(0)"/><path class="e3e2ed5b-e491-4938-89c5-9c7f2a2b4815" d="M463.3,179.6,422.9,393.3l2.1-2.5,39.3-208.2Z" transform="translate(0)"/><path class="e3e2ed5b-e491-4938-89c5-9c7f2a2b4815" d="M467,191.8,430.8,383.2l2.1-3,35-184.9Z" transform="translate(0)"/><path class="e3e2ed5b-e491-4938-89c5-9c7f2a2b4815" d="M464.6,183.4,425.5,390l2.1-2.6,37.9-200.7Z" transform="translate(0)"/><path class="e3e2ed5b-e491-4938-89c5-9c7f2a2b4815" d="M465.8,187.6,428.2,386.7l2-2.7,36.5-193.1Z" transform="translate(0)"/><path class="e3e2ed5b-e491-4938-89c5-9c7f2a2b4815" d="M468.1,196.3,433.5,379.4c.7-1,1.5-2,2.1-3L469,200.1Z" transform="translate(0)"/><path class="e3e2ed5b-e491-4938-89c5-9c7f2a2b4815" d="M472.2,217,444.8,361.7l2.4-4.1L472.8,222Z" transform="translate(0)"/><path class="e3e2ed5b-e491-4938-89c5-9c7f2a2b4815" d="M469.2,201.1l-33,174.5c.8-1.1,1.5-2.3,2.2-3.5l31.7-167.3Z" transform="translate(0)"/><path class="e3e2ed5b-e491-4938-89c5-9c7f2a2b4815" d="M471.2,211.4,441.9,366.8l2.3-4L472,215.7C471.8,214.2,471.5,212.8,471.2,211.4Z" transform="translate(0)"/><path class="e3e2ed5b-e491-4938-89c5-9c7f2a2b4815" d="M470.3,206,439.1,371.2l2.2-3.5L471,210.3C470.8,208.8,470.5,207.4,470.3,206Z" transform="translate(0)"/><path class="e3e2ed5b-e491-4938-89c5-9c7f2a2b4815" d="M406.6,89.1l-69.5,368,1.7-.8L407.9,90.4A8,8,0,0,0,406.6,89.1Z" transform="translate(0)"/><path class="aaf8cd3c-c467-4932-a44a-b70232a56696" d="M156.5,150l10.1.3,13.1.4,23.2-.7.6.6v4l-.6.6c-3.8.1-6.6.3-8.6.5a10.7,10.7,0,0,0-4.5,1.2q-1.4.9-1.8,4.2a71.5,71.5,0,0,0-.4,9.1l-.2,18.6V242a112.8,112.8,0,0,0,.5,11.8c.3,1.8.6,3,1.2,3.6a6,6,0,0,0,2.9,1.5q2.3.6,10.8.9l.6.5v4l-.6.7-14.3-.5-8.9-.2-23.2.7-.6-.7v-4l.6-.5a84.8,84.8,0,0,0,10-.8,7.4,7.4,0,0,0,3.4-1.3c.6-.5,1-1.6,1.4-3.2a92.7,92.7,0,0,0,.6-11.2V188.8l-.2-15.8c-.1-6.2-.2-10.1-.4-11.9a8.2,8.2,0,0,0-1.2-3.6,6,6,0,0,0-2.9-1.4q-2.2-.6-10.8-.9l-.6-.6v-4Z" transform="translate(0)"/><path class="aaf8cd3c-c467-4932-a44a-b70232a56696" d="M251.3,284.7V281l.5-1c8.6-6.6,15.4-10.8,20.6-12.7-14.2,0-25.5-2.4-33.9-7.1s-15-11.9-19.8-21.4a68.8,68.8,0,0,1-7.3-31.4q0-26.2,17.4-42.9c11.6-11.2,26.5-16.8,44.9-16.8q17.9,0,31.5,6.6a48.4,48.4,0,0,1,21.2,19.3c5,8.4,7.5,18.5,7.5,30.1a79.5,79.5,0,0,1-1.6,15.6,59.4,59.4,0,0,1-6.4,17,55.6,55.6,0,0,1-12.2,15.2,65,65,0,0,1-17.8,10.8,66.1,66.1,0,0,1-21.8,5c4.6.7,10.5,2.5,17.9,5.4,9.4,3.8,16.3,6.3,20.9,7.5a44.8,44.8,0,0,0,12,1.9,29.9,29.9,0,0,0,8-1.4l.8.5V284l-.3.8a36,36,0,0,1-3.6,2.2c-4.6,2.6-7.7,4.7-9.2,6.3a41.3,41.3,0,0,1-5.8-.7,57.7,57.7,0,0,1-9-1.9L291.6,286c-13.7-4.7-22.1-7-25.3-7a13.5,13.5,0,0,0-4.3.8,50.7,50.7,0,0,0-5.9,3.1l-4,2.3Zm-23-81.5a76.5,76.5,0,0,0,3.2,21.3A55.5,55.5,0,0,0,241,244a41.2,41.2,0,0,0,14.7,12.1,47,47,0,0,0,41.2-1.8c6.5-3.8,11.5-9.8,14.9-17.8a69.8,69.8,0,0,0,5.1-27.2,71.9,71.9,0,0,0-5.9-29.5c-3.8-8.8-9.4-15.2-16.5-19.2a48.5,48.5,0,0,0-23.9-6c-13.1,0-23.5,4.1-31,12.3S228.3,187.2,228.3,203.2Z" transform="translate(0)"/><path class="aaf8cd3c-c467-4932-a44a-b70232a56696" d="M55.1,313.6H67.8v1.1l-.2.2H65.3a1.7,1.7,0,0,0-1.2.3c-.3.2-.4.5-.5,1.1a17,17,0,0,0-.1,2.5v19.4c.1,1.6.1,2.7.2,3.2a2.2,2.2,0,0,0,.3.9c.1.2.4.3.8.5l2.9.2h.2v1.1l-.2.2H61.3l-6.2.2-.2-.2v-1.1h.2l2.7-.2a1.9,1.9,0,0,0,.9-.4c.2-.1.3-.4.4-.8a22,22,0,0,0,.1-3.1V319.8a24.7,24.7,0,0,0-.1-3.3,3,3,0,0,0-.3-.9,1.5,1.5,0,0,0-.8-.4,14.8,14.8,0,0,0-2.9-.2l-.2-.2v-1.1Z" transform="translate(0)"/><path class="aaf8cd3c-c467-4932-a44a-b70232a56696" d="M70.3,344.6l-.2-.2v-1l.2-.2h2.1a1.9,1.9,0,0,0,1.1-.5,4.1,4.1,0,0,0,.3-1c0-.4.1-1.4.1-3s.1-2.8.1-3.4V317.5a2.4,2.4,0,0,0-.4-1.6,1.6,1.6,0,0,0-1.1-.7l-2.4-.2-.2-.2v-1l.2-.2h7.6l7,9.1,10.2,12.8a57.4,57.4,0,0,0,3.8,4.4V323c0-.5,0-1.6-.1-3.3a19.6,19.6,0,0,0-.2-3.3,1.3,1.3,0,0,0-.4-.9c-.1-.2-.5-.3-1-.4H95l-.2-.2v-1l.2-.2h9.4l.2.2v1l-.2.2-2.2.2c-.6,0-.9.2-1,.4a6.2,6.2,0,0,0-.3,1c0,.4-.1,1.4-.1,3s-.1,2.7-.1,3.4v16.4c0,2,.1,4,.1,5.9l-3.8-.9-1.5-1.8-4.7-5.7L76,318.4v16.8c0,.6,0,1.8.1,3.5a16.4,16.4,0,0,0,.2,3.2,1.2,1.2,0,0,0,.2.7l.8.4,2.4.2.2.2v1l-.2.2-3.7-.2Z" transform="translate(0)"/><path class="aaf8cd3c-c467-4932-a44a-b70232a56696" d="M132.4,313.6l.2.2c-.1,1.3-.2,3.5-.2,6.8v.2h-1.1v-.2l-.3-2a9.1,9.1,0,0,0-.3-2,.5.5,0,0,0-.3-.5l-1.4-.3H122c-.1,3.3-.2,5.2-.2,5.7v17a23.8,23.8,0,0,0,.1,3.2,1.3,1.3,0,0,0,.3,1l.8.4,2.9.2h.2v1.1l-.2.2-6.2-.2-6.3.2v-1.3h.1l2.7-.2c.5-.1.8-.2.9-.4s.3-.4.4-.8a17.6,17.6,0,0,0,.2-3.1V321.4c0-.2,0-2.1-.2-5.7h-6.7a2.5,2.5,0,0,0-1.7.4,9.7,9.7,0,0,0-.4,2.4l-.2,2-.2.2h-1l-.2-.2c0-3.5-.1-5.8-.2-6.8l.2-.2h25.3Z" transform="translate(0)"/><path class="aaf8cd3c-c467-4932-a44a-b70232a56696" d="M135.1,313.7h22.6a36.6,36.6,0,0,0-.8,6.6v.2h-1.1l-.2-.2v-.4a19.8,19.8,0,0,0-.3-3.5,11.4,11.4,0,0,0-3.8-.8l-3.6-.2-4.4.3v11.9h7.7l1.6-.3a1,1,0,0,0,.4-.5,13.9,13.9,0,0,0,.2-1.5V324l.2-.2h1v.2c0,1.6,0,3.2-.1,4.8v5.1h-1l-.2-.2-.2-1.3a7.8,7.8,0,0,0-.3-1.9c0-.2-.2-.3-.4-.5l-1.6-.3-3.6-.2-3.9.2c0,1.2-.1,3.2-.1,6.1s.1,5.3.1,6.7h10.7a10.2,10.2,0,0,0,2.5-.6,15.4,15.4,0,0,0,.7-2.4c.3-1.2.4-1.9.5-2.2l.2-.2h1.1v.2c-.1.6-.2,1.7-.4,3.2s-.1,2.9-.1,4l-.2.2H141.3l-4.3.2-.2-.2v-.7l.2-.2,1.5-.8a21.9,21.9,0,0,0,.3-3.9c.1-2.4.1-4.3.1-5.5V317.7a13.9,13.9,0,0,0-.2-1.5,1.6,1.6,0,0,0-.3-.6c0-.1-.2-.2-.4-.3l-1.1-.2h-1.7v-1.3Z" transform="translate(0)"/><path class="aaf8cd3c-c467-4932-a44a-b70232a56696" d="M170.4,328.6c3.7-3.3,6.3-5.8,8-7.4l4-4a20,20,0,0,0,1.9-2.1v-1.4h7.3l.2.2v1l-.2.2-2.8.2a7.4,7.4,0,0,0-2.1,1.4,38,38,0,0,0-3.3,2.9l-8.9,8.1,13.2,12.1,3.5,3.2a3,3,0,0,0,1.6.3l.2.2v.9l-.2.2h-6.1c-1.4-1.2-2.5-2.3-3.5-3.3l-12.8-11.7v8.9a23.8,23.8,0,0,0,.1,3.2,2.2,2.2,0,0,0,.3.9l.8.5,2.9.2h.2v1.1l-.2.2h-6.3l-6.2.2-.2-.2v-1.1h.2l2.7-.2c.5-.1.8-.2.9-.4s.3-.4.4-.8.1-1.5.2-3.1V319.8a24.7,24.7,0,0,0-.1-3.3,3,3,0,0,0-.3-.9c-.1-.2-.4-.3-.8-.4a14.8,14.8,0,0,0-2.9-.2l-.2-.2v-1.1h12.9v1.1l-.2.2h-2.3a1.7,1.7,0,0,0-1.2.3,1.9,1.9,0,0,0-.5,1.1,17,17,0,0,0-.1,2.5v9.6Z" transform="translate(0)"/><path class="aaf8cd3c-c467-4932-a44a-b70232a56696" d="M194.6,313.6h15a14.3,14.3,0,0,1,5,.7,6.4,6.4,0,0,1,3.3,2.3,6.2,6.2,0,0,1,1.3,4,8.2,8.2,0,0,1-.9,3.8,8.7,8.7,0,0,1-2.5,3.2,12.4,12.4,0,0,1-3.4,1.8,9.9,9.9,0,0,1-3.5.6l-3-.3-.3-1.4.2-.2a9.2,9.2,0,0,0,2.6.4,5.8,5.8,0,0,0,4.6-1.9,6.8,6.8,0,0,0,1.8-4.8,6.5,6.5,0,0,0-1.8-4.8,7.6,7.6,0,0,0-5.5-1.8,15.2,15.2,0,0,0-4.4.8c-.1,1.1-.2,3.8-.2,8.1v14.4a23.8,23.8,0,0,0,.1,3.2,2.2,2.2,0,0,0,.3.9c.1.2.4.3.8.5l2.9.2h.2v1.1l-.2.2-6.3-.2-6.2.2-.2-.2v-1.1h.2l2.7-.2c.5-.1.8-.2.9-.4s.3-.4.4-.8a22,22,0,0,0,.1-3.1V319.8a24.7,24.7,0,0,0-.1-3.3,3,3,0,0,0-.3-.9c-.1-.2-.4-.3-.8-.4a14.8,14.8,0,0,0-2.9-.2l-.2-.2v-1.1Z" transform="translate(0)"/><path class="aaf8cd3c-c467-4932-a44a-b70232a56696" d="M221.2,313.7h15.4c3.6,0,6.1.7,7.5,2a6.8,6.8,0,0,1,1.9,4.8,8,8,0,0,1-.9,3.6,8.3,8.3,0,0,1-2.9,3,12.6,12.6,0,0,1-5.2,1.9l2.3,3,3.1,4.1c1,1.3,2,2.8,3.2,4.3a12.7,12.7,0,0,0,2.2,2.5,1.8,1.8,0,0,0,.9.4H250v1.1l-.2.2-2.5-.2-3.4.2c-1-1.3-2.6-3.4-4.7-6.4s-5.1-6.7-7.7-9.7l.2-.7h1.8a8.9,8.9,0,0,0,5.9-1.8,6.5,6.5,0,0,0,2.1-5.1,5,5,0,0,0-1.9-4.3,8.2,8.2,0,0,0-5.2-1.5,14.9,14.9,0,0,0-4.3.6c-.2.3-.3,3.1-.3,8.2v14.4a23.8,23.8,0,0,0,.1,3.2,2.2,2.2,0,0,0,.3.9l.8.5,2.9.2h.2v1.1l-.2.2h-6.2l-6.3.2-.2-.2v-1.1h.2l2.7-.2c.5-.1.8-.2.9-.4s.3-.4.4-.8a17.6,17.6,0,0,0,.2-3.1V319.8c-.1-1.7-.1-2.8-.2-3.3s-.1-.8-.3-.9-.4-.3-.8-.4a14,14,0,0,0-2.9-.2l-.2-.2Z" transform="translate(0)"/><path class="aaf8cd3c-c467-4932-a44a-b70232a56696" d="M251.3,329.4a19.5,19.5,0,0,1,.9-6.1,14.8,14.8,0,0,1,8.7-9,18.1,18.1,0,0,1,7.2-1.4c4.9,0,8.9,1.4,11.8,4.1s4.4,6.4,4.4,11.1a18.2,18.2,0,0,1-2.1,8.8,15.4,15.4,0,0,1-6.2,6.2,19.4,19.4,0,0,1-9.1,2.1,17.5,17.5,0,0,1-6.5-1.2,13,13,0,0,1-5.1-3.5,15.7,15.7,0,0,1-3.1-5.5A19.7,19.7,0,0,1,251.3,329.4Zm4.5-1.5a21,21,0,0,0,.9,5.8,14.1,14.1,0,0,0,2.6,5.2,10.2,10.2,0,0,0,3.9,3.3,11.9,11.9,0,0,0,5.1,1.1,11.7,11.7,0,0,0,6-1.6,9.8,9.8,0,0,0,4.1-4.8,19,19,0,0,0,1.3-7.3,20.4,20.4,0,0,0-1.5-8,11.1,11.1,0,0,0-4.5-5.2,12.8,12.8,0,0,0-6.5-1.6,10.7,10.7,0,0,0-8.3,3.3C256.8,320.3,255.8,323.6,255.8,327.9Z" transform="translate(0)"/><path class="aaf8cd3c-c467-4932-a44a-b70232a56696" d="M326.5,313.6l.2.2v1.1h-.2a12.7,12.7,0,0,0-3,.3l-.8.5a9.1,9.1,0,0,0-.3,1.6c0,.8,0,3-.1,6.7v10.1c0,1.4,0,3.1.1,4.9a9,9,0,0,0,.3,3.2,1.6,1.6,0,0,0,.7.7,15.9,15.9,0,0,0,3.1.2l.2.2v1.1h-.2l-6.2-.2-6.1.2H314v-1.1l.2-.2a15.3,15.3,0,0,0,3-.2,1.6,1.6,0,0,0,.8-.6,9.1,9.1,0,0,0,.3-1.6c0-.8,0-3,.1-6.6V318.1l-7.6,15.8c-1.9,3.9-3.5,7.7-4.9,11.1H305l-2-4.5-10.4-21.7V339a13.1,13.1,0,0,0,.3,3.3,1.3,1.3,0,0,0,.8.6,12.3,12.3,0,0,0,3.1.3v1.2l-.2.2h-5.1l-5.2.2-.2-.2v-1l.2-.2,3-.2a2.8,2.8,0,0,0,.8-.6,3,3,0,0,0,.3-1.6c0-.7,0-3,.1-6.7v-10c0-1.3,0-2.9-.1-4.8a16.2,16.2,0,0,0-.2-3.3,1.4,1.4,0,0,0-.8-.7,13.1,13.1,0,0,0-3.1-.3h-.2v-1.1l.2-.2h8.3c1.2,2.8,2.4,5.4,3.5,7.7l8.3,17,7.5-15.6c2-4.2,3.3-7.2,4-9.1h8.5Z" transform="translate(0)"/><path class="aaf8cd3c-c467-4932-a44a-b70232a56696" d="M350.7,349.9v-1l.2-.2a22.6,22.6,0,0,1,5.5-3.5c-3.8,0-6.9-.6-9.1-1.9a13.2,13.2,0,0,1-5.4-5.8A18.3,18.3,0,0,1,340,329a15.2,15.2,0,0,1,4.6-11.5,16.7,16.7,0,0,1,12.2-4.6,19.3,19.3,0,0,1,8.5,1.8,13.6,13.6,0,0,1,5.7,5.2,15.2,15.2,0,0,1,2,8.1,21.5,21.5,0,0,1-.4,4.3,16.6,16.6,0,0,1-1.7,4.5,17,17,0,0,1-3.3,4.2,22.7,22.7,0,0,1-4.8,2.9,19.5,19.5,0,0,1-5.9,1.3,24.8,24.8,0,0,1,4.8,1.5,44.9,44.9,0,0,0,5.7,2,10,10,0,0,0,3.2.5,6.9,6.9,0,0,0,2.2-.4l.2.2v1l-1,.5a13.6,13.6,0,0,0-2.5,1.8l-1.5-.2a11.4,11.4,0,0,1-2.5-.6l-3.8-1.2c-3.7-1.3-6-1.9-6.8-1.9l-1.2.2a9.6,9.6,0,0,0-1.6.9l-1.1.6Zm-6.2-22a21,21,0,0,0,.9,5.8,14,14,0,0,0,2.5,5.2,11.2,11.2,0,0,0,4,3.3,12.2,12.2,0,0,0,11.1-.5,9.2,9.2,0,0,0,4-4.8,17.3,17.3,0,0,0,1.4-7.3,20.4,20.4,0,0,0-1.5-8,11.1,11.1,0,0,0-4.5-5.2,13.1,13.1,0,0,0-6.5-1.6,10.7,10.7,0,0,0-8.3,3.3C345.5,320.3,344.5,323.6,344.5,327.9Z" transform="translate(0)"/><path class="aaf8cd3c-c467-4932-a44a-b70232a56696" d="M381.6,323.6l.5.3a71.8,71.8,0,0,0-.3,7.3v5.1a14.9,14.9,0,0,0,.4,3.8,3.1,3.1,0,0,0,1.5,1.7,4.9,4.9,0,0,0,2.5.6,6.8,6.8,0,0,0,2.9-.6,5.5,5.5,0,0,0,2.2-1.8l1-1.5a8.2,8.2,0,0,0,.2-2.2v-4.8c0-.6-.1-1.4-.1-2.4a15.4,15.4,0,0,0-.2-1.9.5.5,0,0,0-.3-.5h-3.2v-1l.2-.2a25,25,0,0,0,7-1.6l.5.3a71.8,71.8,0,0,0-.3,7.3V335c0,.2,0,2,.1,5.4a6.3,6.3,0,0,0,.3,2.2,1,1,0,0,0,.5.6,5.6,5.6,0,0,0,1.9.2h.8v.9l-.2.2-4.1-.2-3.1.2-.2-.2c.1-1.5.2-2.7.2-3.8a37.2,37.2,0,0,0-3.1,2.9,6.2,6.2,0,0,1-2,1.1,8.2,8.2,0,0,1-2.8.5,8.4,8.4,0,0,1-3.9-.8,4.3,4.3,0,0,1-1.9-2.1,13.3,13.3,0,0,1-.6-4.7v-6c0-.6-.1-1.4-.1-2.4a15.4,15.4,0,0,0-.2-1.9.5.5,0,0,0-.3-.5h-3.2v-1l.2-.2A25,25,0,0,0,381.6,323.6Z" transform="translate(0)"/><path class="aaf8cd3c-c467-4932-a44a-b70232a56696" d="M409.2,323.6l.4.3c-.1,1.9-.2,4.3-.2,7.3v4.9c0,.3,0,1.3.1,3.1a13.8,13.8,0,0,0,.2,3,.9.9,0,0,0,.3.7l.4.2,2.4.2.2.2v.9l-.2.2-5.2-.2-5.3.2-.2-.2v-.9l.2-.2,2.4-.2c.2,0,.3-.1.5-.3a1.6,1.6,0,0,0,.3-.6c0-.3.1-1.2.1-2.8s.1-2.8.1-3.6v-6.7c-.1-1-.2-1.6-.2-1.9a.5.5,0,0,0-.3-.5H402v-1l.2-.2A25,25,0,0,0,409.2,323.6Zm-1.8-9.8a2.5,2.5,0,0,1,1.7.8,2.4,2.4,0,0,1,0,3.4,2.5,2.5,0,0,1-1.7.8,2.5,2.5,0,0,1-1.8-.8,2.4,2.4,0,0,1,0-3.4A2.5,2.5,0,0,1,407.4,313.8Z" transform="translate(0)"/><path class="aaf8cd3c-c467-4932-a44a-b70232a56696" d="M415.3,344.6l-.2-.2-.2-.8c1.9-2,3.7-4.1,5.4-6.2l4.8-6q2.3-2.8,4.2-5.7h-7.9a6.1,6.1,0,0,0-2.5.4,9.6,9.6,0,0,0-.6,2.8l-.2.7v.2h-.9l-.2-.2c.1-2.3.2-3.7.2-4V324c5.5.2,9.8.2,13,.2a23.7,23.7,0,0,0,4.1-.2v1.3c-1,1.1-2.5,3-4.7,5.7l-5.7,7.3-3.6,4.6h5.9l4.1-.2,1.9-.3.3-.3c.1,0,.2-.5.4-1.3s.4-1.7.5-2.4l.2-.2h1l.2.2a42.5,42.5,0,0,0-.6,6l-.2.2-9.9-.2Z" transform="translate(0)"/><path class="a6642d7e-e8e2-47b4-b3c5-bf89760e49d2" d="M156.5,148.9l10.1.3,13.1.3,23.2-.6.6.5v4.1l-.6.6c-3.8.1-6.6.2-8.6.4a12.1,12.1,0,0,0-4.5,1.3c-.9.6-1.5,1.9-1.8,4.1a72.5,72.5,0,0,0-.4,9.1l-.2,18.6v53.3a112.8,112.8,0,0,0,.5,11.8c.3,1.8.6,2.9,1.2,3.5a6,6,0,0,0,2.9,1.5,61.5,61.5,0,0,0,10.8,1l.6.5v4l-.6.6-14.3-.4-8.9-.2-23.2.6-.6-.6v-4l.6-.5a84.8,84.8,0,0,0,10-.8,8.8,8.8,0,0,0,3.4-1.3c.6-.5,1-1.6,1.4-3.3a90.5,90.5,0,0,0,.6-11.1V187.6l-.2-15.7c-.1-6.2-.2-10.2-.4-11.9a8.2,8.2,0,0,0-1.2-3.6,5.2,5.2,0,0,0-2.9-1.4q-2.2-.6-10.8-.9l-.6-.6v-4.1Z" transform="translate(0)"/><path class="ada08781-2c7f-42e3-a63a-26d04e403d9e" d="M251.3,283.6v-3.7l.5-1c8.6-6.6,15.4-10.9,20.6-12.7q-21.3,0-33.9-7.2c-8.4-4.7-15-11.9-19.8-21.4a68.5,68.5,0,0,1-7.3-31.4q0-26.1,17.4-42.9c11.6-11.1,26.5-16.7,44.9-16.7q17.9,0,31.5,6.6a48.2,48.2,0,0,1,21.2,19.2c5,8.5,7.5,18.5,7.5,30.1a79.7,79.7,0,0,1-1.6,15.7,57.8,57.8,0,0,1-6.4,16.9,52.8,52.8,0,0,1-12.2,15.2,62.9,62.9,0,0,1-17.8,10.9,68.7,68.7,0,0,1-21.8,5c4.6.6,10.5,2.4,17.9,5.4,9.4,3.7,16.3,6.2,20.9,7.5a44.8,44.8,0,0,0,12,1.9,26.9,26.9,0,0,0,8-1.5l.8.6v2.8l-.3.8a36,36,0,0,1-3.6,2.2c-4.6,2.6-7.7,4.7-9.2,6.3-.9,0-2.9-.3-5.8-.7a58.1,58.1,0,0,1-9-2c-3-.9-7.8-2.4-14.2-4.6-13.7-4.7-22.1-7.1-25.3-7.1a11.4,11.4,0,0,0-4.3.9,50.7,50.7,0,0,0-5.9,3.1l-4,2.3Zm-23-81.5a76.5,76.5,0,0,0,3.2,21.3,57.2,57.2,0,0,0,9.5,19.5,39.8,39.8,0,0,0,14.7,12,42.2,42.2,0,0,0,18.8,4,43.6,43.6,0,0,0,22.4-5.7c6.5-3.9,11.5-9.8,14.9-17.9a68.9,68.9,0,0,0,5.1-27.1,71.6,71.6,0,0,0-5.9-29.5c-3.8-8.8-9.4-15.2-16.5-19.2a48.5,48.5,0,0,0-23.9-6c-13.1,0-23.5,4.1-31,12.3S228.3,186.1,228.3,202.1Z" transform="translate(0)"/><path class="a6642d7e-e8e2-47b4-b3c5-bf89760e49d2" d="M55.1,312.4h6.2l6.3-.2.2.2v1.1h-.2l-2.3.2a1.7,1.7,0,0,0-1.2.3c-.3.1-.4.5-.5,1.1a17,17,0,0,0-.1,2.5v19.4c.1,1.6.1,2.7.2,3.2a3,3,0,0,0,.3.9c.1.2.4.3.8.4l2.9.3h.2v1.1l-.2.2-3.8-.2H61.3l-6.2.2-.2-.2v-1.1h.2l2.7-.2.9-.4c.2-.1.3-.4.4-.9a19.6,19.6,0,0,0,.1-3v-19a23.8,23.8,0,0,0-.1-3.2,2.2,2.2,0,0,0-.3-.9,1.5,1.5,0,0,0-.8-.4l-2.9-.3h-.2v-1.1Z" transform="translate(0)"/><path d="M70.3,343.4h-.2v-1.1h.2l2.1-.2a1.9,1.9,0,0,0,1.1-.4,6.2,6.2,0,0,0,.3-1c0-.5.1-1.5.1-3.1s.1-2.7.1-3.4V316.4a2.7,2.7,0,0,0-.4-1.7,1.5,1.5,0,0,0-1.1-.6l-2.4-.2-.2-.2v-1l.2-.2h7.6l7,9,10.2,12.9c1.3,1.5,2.5,3,3.8,4.4V321.9c0-.5,0-1.6-.1-3.3a18.7,18.7,0,0,0-.2-3.3,1,1,0,0,0-.4-.9c-.1-.2-.5-.3-1-.4H95l-.2-.2v-1l.2-.2h9.4l.2.2v1l-.2.2h-2.2c-.6.1-.9.3-1,.5a4.1,4.1,0,0,0-.3,1c0,.4-.1,1.4-.1,3s-.1,2.7-.1,3.4v16.4c0,2,.1,3.9.1,5.9l-3.8-.9-1.5-1.8-4.7-5.7L76,317.3V334c0,.7,0,1.9.1,3.6a15.1,15.1,0,0,0,.2,3.1,1.3,1.3,0,0,0,.2.8,2.9,2.9,0,0,0,.8.4,11,11,0,0,0,2.4.2h.2v1.1H70.3Z" transform="translate(0)"/><path d="M132.4,312.4l.2.2c-.1,1.3-.2,3.6-.2,6.9v.2h-1.1v-.2l-.3-2.1a9,9,0,0,0-.3-1.9.7.7,0,0,0-.3-.6,3,3,0,0,0-1.4-.2H122c-.1,3.3-.2,5.2-.2,5.7v17a23.8,23.8,0,0,0,.1,3.2c0,.4.1.8.3.9s.4.3.8.4l2.9.3h.2v1.1l-.2.2-6.2-.2-6.3.2v-1.3h.1l2.7-.2a1.9,1.9,0,0,0,.9-.4c.2-.1.3-.4.4-.9a15.3,15.3,0,0,0,.2-3V320.3c0-.3,0-2.2-.2-5.7h-6.7a2.5,2.5,0,0,0-1.7.4,8.5,8.5,0,0,0-.4,2.3l-.2,2.1-.2.2h-1l-.2-.2c0-3.5-.1-5.8-.2-6.9l.2-.2,12.7.2Z" transform="translate(0)"/><path d="M135.1,312.6v-.2l9.6.2,12.8-.2v.2a36.6,36.6,0,0,0-.8,6.6h-1.4v-.4a19.8,19.8,0,0,0-.3-3.5,9.4,9.4,0,0,0-3.8-.8,27.1,27.1,0,0,0-3.6-.2l-4.4.2v12h7.7l1.6-.3a.9.9,0,0,0,.4-.6,8.8,8.8,0,0,0,.2-1.4v-1.4h1.3c0,1.6,0,3.2-.1,4.8v5.1h-1l-.2-.2-.2-1.3a7.6,7.6,0,0,0-.3-1.8.7.7,0,0,0-.4-.5,3.2,3.2,0,0,0-1.6-.4h-7.5c0,1.2-.1,3.3-.1,6.1s.1,5.4.1,6.8h10.7a7.2,7.2,0,0,0,2.5-.7,10.7,10.7,0,0,0,.7-2.3c.3-1.2.4-2,.5-2.3h1.4c-.1.6-.2,1.7-.4,3.3s-.1,2.9-.1,4l-.2.2-10.9-.2h-6l-4.3.2-.2-.2v-.7l.2-.2,1.5-.9a21.4,21.4,0,0,0,.3-3.8c.1-2.4.1-4.3.1-5.6V316.5a11.3,11.3,0,0,0-.2-1.4,1.6,1.6,0,0,0-.3-.6c0-.2-.2-.3-.4-.3l-1.1-.2-1.7-.2h-.1Z" transform="translate(0)"/><path d="M170.4,327.5c3.7-3.3,6.3-5.8,8-7.4s2.9-3,4-4l1.9-2.1v-1.4l.2-.2h7.1l.2.2v1.1h-.2a9,9,0,0,0-2.8.3,5.7,5.7,0,0,0-2.1,1.4,35.4,35.4,0,0,0-3.3,2.8l-8.9,8.1,13.2,12.2,3.5,3.2a3,3,0,0,0,1.6.3l.2.2v.9l-.2.2h-6.1l-3.5-3.3-12.8-11.7v8.9a23.8,23.8,0,0,0,.1,3.2,3,3,0,0,0,.3.9,1.5,1.5,0,0,0,.8.4l2.9.3h.2v1.1l-.2.2-3.8-.2h-2.5l-6.2.2-.2-.2v-1.1h.2l2.7-.2a1.9,1.9,0,0,0,.9-.4c.2-.1.3-.4.4-.9s.1-1.4.2-3v-19a23.8,23.8,0,0,0-.1-3.2,2.2,2.2,0,0,0-.3-.9c-.1-.2-.4-.3-.8-.4l-2.9-.3h-.2v-1.1l.2-.2h6.2l6.3-.2.2.2v1.1h-.2l-2.3.2a1.7,1.7,0,0,0-1.2.3c-.2.1-.4.5-.5,1.1a17,17,0,0,0-.1,2.5v9.6Z" transform="translate(0)"/><path d="M194.6,312.4l7,.2h8a17.5,17.5,0,0,1,5,.6,6.7,6.7,0,0,1,4.6,6.4,8.5,8.5,0,0,1-.9,3.8,8.4,8.4,0,0,1-2.5,3.1,10.5,10.5,0,0,1-3.4,1.9,9.9,9.9,0,0,1-3.5.5l-3-.3-.3-1.3.2-.2a15.1,15.1,0,0,0,2.6.4,6.1,6.1,0,0,0,4.6-1.9,6.9,6.9,0,0,0,1.8-4.9,6.3,6.3,0,0,0-1.8-4.7,7.6,7.6,0,0,0-5.5-1.8,15.2,15.2,0,0,0-4.4.8c-.1,1.1-.2,3.8-.2,8.1v14.4a23.8,23.8,0,0,0,.1,3.2,3,3,0,0,0,.3.9c.1.2.4.3.8.4l2.9.3h.2v1.1l-.2.2-6.3-.2-6.2.2-.2-.2v-1.1h.2l2.7-.2a1.9,1.9,0,0,0,.9-.4c.2-.1.3-.4.4-.9a19.6,19.6,0,0,0,.1-3v-19a23.8,23.8,0,0,0-.1-3.2,2.2,2.2,0,0,0-.3-.9c-.1-.2-.4-.3-.8-.4l-2.9-.3h-.2v-1.1Z" transform="translate(0)"/><path d="M221.2,312.6l.2-.2,6.2.2,6.7-.2h2.3c3.6,0,6.1.7,7.5,2a6.5,6.5,0,0,1,1.9,4.8,8,8,0,0,1-.9,3.6,8.3,8.3,0,0,1-2.9,3,14.2,14.2,0,0,1-5.2,1.9l2.3,2.9,3.1,4.2,3.2,4.2a11.6,11.6,0,0,0,2.2,2.6l.9.4h1.1l.2.2v1l-.2.2h-5.9c-1-1.2-2.6-3.3-4.7-6.3s-5.1-6.8-7.7-9.8l.2-.6h1.8a8.9,8.9,0,0,0,5.9-1.8,6.3,6.3,0,0,0,2.1-5,5.2,5.2,0,0,0-1.9-4.4,8.9,8.9,0,0,0-5.2-1.4,14.9,14.9,0,0,0-4.3.6c-.2.3-.3,3-.3,8.2v14.4a23.8,23.8,0,0,0,.1,3.2,3,3,0,0,0,.3.9,1.5,1.5,0,0,0,.8.4l2.9.3h.2v1.1l-.2.2-3.8-.2h-2.4l-6.3.2-.2-.2v-1.1h.2l2.7-.2a1.9,1.9,0,0,0,.9-.4c.2-.1.3-.4.4-.9a15.3,15.3,0,0,0,.2-3v-19c-.1-1.6-.1-2.7-.2-3.2s-.1-.8-.3-.9-.4-.3-.8-.4l-2.9-.3h-.2Z" transform="translate(0)"/><path d="M251.3,328.2a20.5,20.5,0,0,1,.9-6.1,13.6,13.6,0,0,1,3.2-5.2,15.5,15.5,0,0,1,5.5-3.8,18.1,18.1,0,0,1,7.2-1.3c4.9,0,8.9,1.4,11.8,4.1s4.4,6.4,4.4,11a18.6,18.6,0,0,1-2.1,8.9,15.2,15.2,0,0,1-6.2,6.1,18.3,18.3,0,0,1-9.1,2.2,17.5,17.5,0,0,1-6.5-1.2,14.1,14.1,0,0,1-5.1-3.5,15.7,15.7,0,0,1-3.1-5.5A20.9,20.9,0,0,1,251.3,328.2Zm4.5-1.4a19.8,19.8,0,0,0,.9,5.7,14.6,14.6,0,0,0,2.6,5.3,11.1,11.1,0,0,0,3.9,3.3,11.9,11.9,0,0,0,5.1,1,11.6,11.6,0,0,0,6-1.5,10.8,10.8,0,0,0,4.1-4.8,19.5,19.5,0,0,0,1.3-7.4,19.9,19.9,0,0,0-1.5-7.9,11.1,11.1,0,0,0-4.5-5.2,12.8,12.8,0,0,0-6.5-1.6,10.7,10.7,0,0,0-8.3,3.3C256.8,319.2,255.8,322.5,255.8,326.8Z" transform="translate(0)"/><path d="M326.5,312.5l.2.2v1l-.2.2a15.3,15.3,0,0,0-3,.2,1.6,1.6,0,0,0-.8.6,9.1,9.1,0,0,0-.3,1.6c0,.8,0,3-.1,6.7v10c0,1.5,0,3.1.1,5a9,9,0,0,0,.3,3.2,1.1,1.1,0,0,0,.7.6,9.1,9.1,0,0,0,3.1.3h.2v1.1l-.2.2-6.2-.2-6.1.2-.2-.2v-1l.2-.2a15.3,15.3,0,0,0,3-.2l.8-.6a9.1,9.1,0,0,0,.3-1.6c0-.8,0-3,.1-6.7V317l-7.6,15.8c-1.9,3.9-3.5,7.6-4.9,11.1H305l-2-4.5-10.4-21.7v20.2a12,12,0,0,0,.3,3.2c.1.3.4.5.8.7l3.1.3h.1v1.1l-.2.2h-5.1l-5.2.2-.2-.2v-1.1h.2l3-.3a1.2,1.2,0,0,0,.8-.6,2.6,2.6,0,0,0,.3-1.5c0-.8,0-3,.1-6.7V323c0-1.4,0-3-.1-4.9a16.2,16.2,0,0,0-.2-3.3,1.2,1.2,0,0,0-.8-.6,9.1,9.1,0,0,0-3.1-.3l-.2-.2v-1l.2-.2h8.3c1.2,2.8,2.4,5.4,3.5,7.7l8.3,17,7.5-15.6c2-4.2,3.3-7.3,4-9.1h8.5Z" transform="translate(0)"/><path class="ada08781-2c7f-42e3-a63a-26d04e403d9e" d="M350.7,348.8v-1l.2-.3a21.5,21.5,0,0,1,5.5-3.4c-3.8,0-6.9-.6-9.1-1.9a13.8,13.8,0,0,1-5.4-5.8,18.6,18.6,0,0,1-1.9-8.5,15.4,15.4,0,0,1,4.6-11.6,17,17,0,0,1,12.2-4.5,19.3,19.3,0,0,1,8.5,1.8,13.6,13.6,0,0,1,5.7,5.2,15.2,15.2,0,0,1,2,8.1,20.6,20.6,0,0,1-.4,4.2,17.2,17.2,0,0,1-1.7,4.6,15.6,15.6,0,0,1-8.1,7,17,17,0,0,1-5.9,1.4,24.8,24.8,0,0,1,4.8,1.5c2.5,1,4.4,1.6,5.7,2a13.9,13.9,0,0,0,3.2.5,6.9,6.9,0,0,0,2.2-.4l.2.2v.9l-1,.6a14.5,14.5,0,0,0-2.5,1.7l-1.5-.2-2.5-.5-3.8-1.2c-3.7-1.3-6-1.9-6.8-1.9a2.5,2.5,0,0,0-1.2.2,7.8,7.8,0,0,0-1.6.8l-1.1.6Zm-6.2-22a19.8,19.8,0,0,0,.9,5.7,14.5,14.5,0,0,0,2.5,5.3,12.4,12.4,0,0,0,4,3.3,13.1,13.1,0,0,0,11.1-.5,10,10,0,0,0,4-4.8,17.8,17.8,0,0,0,1.4-7.4,19.9,19.9,0,0,0-1.5-7.9,11.1,11.1,0,0,0-4.5-5.2,13.1,13.1,0,0,0-6.5-1.6,10.7,10.7,0,0,0-8.3,3.3C345.5,319.2,344.5,322.5,344.5,326.8Z" transform="translate(0)"/><path d="M381.6,322.5l.5.3a71,71,0,0,0-.3,7.2v5.1a15.2,15.2,0,0,0,.4,3.9,3.5,3.5,0,0,0,1.5,1.7,4.9,4.9,0,0,0,2.5.6,5.7,5.7,0,0,0,2.9-.7,6.2,6.2,0,0,0,2.2-1.7,11.7,11.7,0,0,0,1-1.5,9.2,9.2,0,0,0,.2-2.3v-4.8c0-.6-.1-1.3-.1-2.3a13.1,13.1,0,0,0-.2-1.9.5.5,0,0,0-.3-.5l-1.1-.2H389l-.2-.2v-.9l.2-.2a29,29,0,0,0,7-1.6l.5.3a71,71,0,0,0-.3,7.2v3.9c0,.2,0,2,.1,5.3a7.1,7.1,0,0,0,.3,2.3,1,1,0,0,0,.5.6h2.5l.2.2v.9l-.2.2-4.1-.2h-3.3c.1-1.5.2-2.8.2-3.8a37.2,37.2,0,0,0-3.1,2.9,6.2,6.2,0,0,1-2,1.1,8.2,8.2,0,0,1-2.8.5,8.4,8.4,0,0,1-3.9-.8,4.5,4.5,0,0,1-1.9-2.2,12.6,12.6,0,0,1-.6-4.7v-6c0-.6-.1-1.3-.1-2.3a13.1,13.1,0,0,0-.2-1.9.5.5,0,0,0-.3-.5l-1.1-.2h-1.9l-.2-.2v-.9l.2-.2A29,29,0,0,0,381.6,322.5Z" transform="translate(0)"/><path d="M409.2,322.5l.4.3c-.1,1.9-.2,4.3-.2,7.2v5c0,.3,0,1.3.1,3.1a13.8,13.8,0,0,0,.2,3,.6.6,0,0,0,.3.6.5.5,0,0,0,.4.3l2.4.2.2.2v.9l-.2.2-5.2-.2-5.3.2-.2-.2v-.9l.2-.2,2.4-.2.5-.3a1.6,1.6,0,0,0,.3-.6c0-.3.1-1.2.1-2.8s.1-2.8.1-3.7V328c-.1-1-.2-1.7-.2-1.9a.5.5,0,0,0-.3-.5,2.9,2.9,0,0,0-1.2-.2h-1.8l-.2-.2v-.9l.2-.2A29,29,0,0,0,409.2,322.5Zm-1.8-9.8a2.3,2.3,0,0,1,1.7.7,2.4,2.4,0,0,1,.7,1.8,2.4,2.4,0,0,1-2.4,2.4,2.4,2.4,0,0,1-1.8-.7,2.2,2.2,0,0,1-.7-1.7,2.4,2.4,0,0,1,2.5-2.5Z" transform="translate(0)"/><path d="M415.3,343.5l-.2-.2-.2-.8a81.4,81.4,0,0,0,5.4-6.3l4.8-5.9q2.3-2.9,4.2-5.7h-7.9a5.2,5.2,0,0,0-2.5.3,10.9,10.9,0,0,0-.6,2.9l-.2.7h-1l-.2-.2c.1-2.3.2-3.6.2-4v-1.6l13,.2,4.1-.2v1.2c-1,1.1-2.5,3-4.7,5.8l-5.7,7.2-3.6,4.7h5.9l4.1-.2,1.9-.3c.2-.1.3-.1.3-.2a4.8,4.8,0,0,0,.4-1.4c.2-.8.4-1.6.5-2.3l.2-.2h1l.2.2a42.5,42.5,0,0,0-.6,6l-.2.2c-4.3-.2-7.7-.2-9.9-.2S419.2,343.3,415.3,343.5Z" transform="translate(0)"/></svg>